<svg xmlns="http://www.w3.org/2000/svg" width="900" height="420" viewBox="0 0 900 420"><rect width="900" height="420" fill="#fbfdfb" rx="8"/><text x="70" y="30" font-family="system-ui, -apple-system, sans-serif" font-size="20" font-weight="700" fill="#1d2a1d">Twin Rivers Timeline</text><text x="70" y="48" font-family="system-ui, -apple-system, sans-serif" font-size="12" fill="#5a6e58">163 models | ARC-AGI and HLE scores over time</text>
<circle cx="70" cy="46" r="4" fill="#0f766e"/>
<text x="78" y="49" font-family="system-ui, -apple-system, sans-serif" font-size="10" fill="#5a6e58">ARC-AGI</text>
<circle cx="139.5" cy="46" r="4" fill="#b91c1c"/>
<text x="147.5" y="49" font-family="system-ui, -apple-system, sans-serif" font-size="10" fill="#5a6e58">HLE</text>
<line x1="70" y1="370.0" x2="870" y2="370.0" stroke="#d3dfd4" stroke-width="0.5"/>
<text x="62" y="374.0" font-family="ui-monospace, 'SF Mono', monospace" font-size="10" fill="#5a6e58" text-anchor="end">0</text>
<line x1="70" y1="292.5" x2="870" y2="292.5" stroke="#d3dfd4" stroke-width="0.5"/>
<text x="62" y="296.5" font-family="ui-monospace, 'SF Mono', monospace" font-size="10" fill="#5a6e58" text-anchor="end">20</text>
<line x1="70" y1="215.0" x2="870" y2="215.0" stroke="#d3dfd4" stroke-width="0.5"/>
<text x="62" y="219.0" font-family="ui-monospace, 'SF Mono', monospace" font-size="10" fill="#5a6e58" text-anchor="end">40</text>
<line x1="70" y1="137.5" x2="870" y2="137.5" stroke="#d3dfd4" stroke-width="0.5"/>
<text x="62" y="141.5" font-family="ui-monospace, 'SF Mono', monospace" font-size="10" fill="#5a6e58" text-anchor="end">60</text>
<line x1="70" y1="60.0" x2="870" y2="60.0" stroke="#d3dfd4" stroke-width="0.5"/>
<text x="62" y="64.0" font-family="ui-monospace, 'SF Mono', monospace" font-size="10" fill="#5a6e58" text-anchor="end">80</text>
<text x="70.0" y="386" font-family="ui-monospace, 'SF Mono', monospace" font-size="9" fill="#5a6e58" text-anchor="middle">Nov 2023</text>
<text x="166.2" y="386" font-family="ui-monospace, 'SF Mono', monospace" font-size="9" fill="#5a6e58" text-anchor="middle">Feb 2024</text>
<text x="247.6" y="386" font-family="ui-monospace, 'SF Mono', monospace" font-size="9" fill="#5a6e58" text-anchor="middle">May 2024</text>
<text x="308.6" y="386" font-family="ui-monospace, 'SF Mono', monospace" font-size="9" fill="#5a6e58" text-anchor="middle">Jul 2024</text>
<text x="360.4" y="386" font-family="ui-monospace, 'SF Mono', monospace" font-size="9" fill="#5a6e58" text-anchor="middle">Sep 2024</text>
<text x="408.5" y="386" font-family="ui-monospace, 'SF Mono', monospace" font-size="9" fill="#5a6e58" text-anchor="middle">Nov 2024</text>
<text x="438.1" y="386" font-family="ui-monospace, 'SF Mono', monospace" font-size="9" fill="#5a6e58" text-anchor="middle">Dec 2024</text>
<text x="480.6" y="386" font-family="ui-monospace, 'SF Mono', monospace" font-size="9" fill="#5a6e58" text-anchor="middle">Jan 2025</text>
<text x="495.4" y="386" font-family="ui-monospace, 'SF Mono', monospace" font-size="9" fill="#5a6e58" text-anchor="middle">Feb 2025</text>
<text x="539.8" y="386" font-family="ui-monospace, 'SF Mono', monospace" font-size="9" fill="#5a6e58" text-anchor="middle">Mar 2025</text>
<text x="550.0" y="386" font-family="ui-monospace, 'SF Mono', monospace" font-size="9" fill="#5a6e58" text-anchor="middle">Apr 2025</text>
<text x="593.5" y="386" font-family="ui-monospace, 'SF Mono', monospace" font-size="9" fill="#5a6e58" text-anchor="middle">May 2025</text>
<text x="611.0" y="386" font-family="ui-monospace, 'SF Mono', monospace" font-size="9" fill="#5a6e58" text-anchor="middle">Jun 2025</text>
<text x="637.9" y="386" font-family="ui-monospace, 'SF Mono', monospace" font-size="9" fill="#5a6e58" text-anchor="middle">Jul 2025</text>
<text x="664.7" y="386" font-family="ui-monospace, 'SF Mono', monospace" font-size="9" fill="#5a6e58" text-anchor="middle">Aug 2025</text>
<text x="704.5" y="386" font-family="ui-monospace, 'SF Mono', monospace" font-size="9" fill="#5a6e58" text-anchor="middle">Sep 2025</text>
<text x="720.2" y="386" font-family="ui-monospace, 'SF Mono', monospace" font-size="9" fill="#5a6e58" text-anchor="middle">Oct 2025</text>
<text x="746.1" y="386" font-family="ui-monospace, 'SF Mono', monospace" font-size="9" fill="#5a6e58" text-anchor="middle">Nov 2025</text>
<text x="772.0" y="386" font-family="ui-monospace, 'SF Mono', monospace" font-size="9" fill="#5a6e58" text-anchor="middle">Dec 2025</text>
<text x="824.7" y="386" font-family="ui-monospace, 'SF Mono', monospace" font-size="9" fill="#5a6e58" text-anchor="middle">Jan 2026</text>
<text x="831.2" y="386" font-family="ui-monospace, 'SF Mono', monospace" font-size="9" fill="#5a6e58" text-anchor="middle">Feb 2026</text>
<text x="857.1" y="386" font-family="ui-monospace, 'SF Mono', monospace" font-size="9" fill="#5a6e58" text-anchor="middle">Mar 2026</text>
<line x1="70" y1="60" x2="70" y2="370" stroke="#d3dfd4"/>
<line x1="70" y1="370" x2="870" y2="370" stroke="#d3dfd4"/>
<text x="470.0" y="408" font-family="system-ui, -apple-system, sans-serif" font-size="11" fill="#5a6e58" text-anchor="middle">Release date</text>
<text x="14" y="215.0" font-family="system-ui, -apple-system, sans-serif" font-size="11" fill="#5a6e58" text-anchor="middle" transform="rotate(-90, 14, 215.0)">Score (%)</text>
<line x1="247.6" y1="352.6" x2="247.6" y2="359.5" stroke="#cad8cb" stroke-width="1"/>
<line x1="480.6" y1="308.8" x2="480.6" y2="337.1" stroke="#cad8cb" stroke-width="1"/>
<line x1="759.9" y1="79.4" x2="759.9" y2="221.6" stroke="#cad8cb" stroke-width="1"/>
<line x1="781.2" y1="306.1" x2="781.2" y2="254.1" stroke="#cad8cb" stroke-width="1"/>
<line x1="824.7" y1="86.7" x2="824.7" y2="271.6" stroke="#cad8cb" stroke-width="1"/>
<circle cx="70.0" cy="304.1" r="4" fill="#0f766e"/>
<circle cx="166.2" cy="366.9" r="4" fill="#0f766e"/>
<circle cx="247.6" cy="352.6" r="4" fill="#0f766e"/>
<circle cx="247.6" cy="359.5" r="4" fill="#b91c1c"/>
<circle cx="308.6" cy="370.0" r="4" fill="#0f766e"/>
<circle cx="360.4" cy="315.8" r="4" fill="#0f766e"/>
<circle cx="408.5" cy="153.0" r="4" fill="#0f766e"/>
<circle cx="438.1" cy="339.0" r="4" fill="#b91c1c"/>
<circle cx="480.6" cy="308.8" r="4" fill="#0f766e"/>
<circle cx="480.6" cy="337.1" r="4" fill="#b91c1c"/>
<circle cx="490.8" cy="251.3" r="4" fill="#0f766e"/>
<circle cx="490.8" cy="302.7" r="4" fill="#0f766e"/>
<circle cx="490.8" cy="189.5" r="4" fill="#0f766e"/>
<circle cx="490.8" cy="318.1" r="4" fill="#b91c1c"/>
<circle cx="495.4" cy="365.0" r="4" fill="#0f766e"/>
<circle cx="506.5" cy="337.5" r="4" fill="#0f766e"/>
<circle cx="506.5" cy="301.7" r="4" fill="#0f766e"/>
<circle cx="513.0" cy="317.3" r="4" fill="#0f766e"/>
<circle cx="513.0" cy="259.2" r="4" fill="#0f766e"/>
<circle cx="513.0" cy="325.1" r="4" fill="#0f766e"/>
<circle cx="513.0" cy="287.9" r="4" fill="#0f766e"/>
<circle cx="513.0" cy="339.0" r="4" fill="#b91c1c"/>
<circle cx="515.8" cy="330.1" r="4" fill="#0f766e"/>
<circle cx="539.8" cy="297.1" r="4" fill="#b91c1c"/>
<circle cx="550.0" cy="342.4" r="4" fill="#0f766e"/>
<circle cx="550.0" cy="360.8" r="4" fill="#0f766e"/>
<circle cx="558.3" cy="363.2" r="4" fill="#0f766e"/>
<circle cx="558.3" cy="341.9" r="4" fill="#0f766e"/>
<circle cx="558.3" cy="324.5" r="4" fill="#0f766e"/>
<circle cx="560.2" cy="185.5" r="4" fill="#0f766e"/>
<circle cx="560.2" cy="150.2" r="4" fill="#0f766e"/>
<circle cx="560.2" cy="121.0" r="4" fill="#0f766e"/>
<circle cx="560.2" cy="263.0" r="4" fill="#0f766e"/>
<circle cx="560.2" cy="175.3" r="4" fill="#0f766e"/>
<circle cx="560.2" cy="106.4" r="4" fill="#0f766e"/>
<circle cx="560.2" cy="240.7" r="4" fill="#0f766e"/>
<circle cx="560.2" cy="291.3" r="4" fill="#b91c1c"/>
<circle cx="560.2" cy="299.9" r="4" fill="#b91c1c"/>
<circle cx="561.1" cy="229.3" r="4" fill="#0f766e"/>
<circle cx="593.5" cy="242.1" r="4" fill="#0f766e"/>
<circle cx="593.5" cy="248.7" r="4" fill="#0f766e"/>
<circle cx="593.5" cy="181.6" r="4" fill="#0f766e"/>
<circle cx="593.5" cy="150.1" r="4" fill="#0f766e"/>
<circle cx="593.5" cy="159.8" r="4" fill="#0f766e"/>
<circle cx="593.5" cy="193.2" r="4" fill="#0f766e"/>
<circle cx="593.5" cy="202.2" r="4" fill="#0f766e"/>
<circle cx="593.5" cy="232.4" r="4" fill="#0f766e"/>
<circle cx="593.5" cy="332.8" r="4" fill="#b91c1c"/>
<circle cx="599.0" cy="265.5" r="4" fill="#0f766e"/>
<circle cx="611.0" cy="172.8" r="4" fill="#0f766e"/>
<circle cx="611.0" cy="145.0" r="4" fill="#0f766e"/>
<circle cx="611.0" cy="124.6" r="4" fill="#0f766e"/>
<circle cx="611.0" cy="336.6" r="4" fill="#0f766e"/>
<circle cx="611.0" cy="335.5" r="4" fill="#0f766e"/>
<circle cx="611.0" cy="339.0" r="4" fill="#0f766e"/>
<circle cx="617.5" cy="300.4" r="4" fill="#0f766e"/>
<circle cx="617.5" cy="236.2" r="4" fill="#0f766e"/>
<circle cx="617.5" cy="230.5" r="4" fill="#0f766e"/>
<circle cx="617.5" cy="218.4" r="4" fill="#0f766e"/>
<circle cx="617.5" cy="302.2" r="4" fill="#0f766e"/>
<circle cx="617.5" cy="198.8" r="4" fill="#0f766e"/>
<circle cx="617.5" cy="151.3" r="4" fill="#0f766e"/>
<circle cx="617.5" cy="153.5" r="4" fill="#0f766e"/>
<circle cx="617.5" cy="286.1" r="4" fill="#b91c1c"/>
<circle cx="617.5" cy="323.2" r="4" fill="#b91c1c"/>
<circle cx="617.5" cy="344.0" r="4" fill="#b91c1c"/>
<circle cx="637.9" cy="144.7" r="4" fill="#0f766e"/>
<circle cx="637.9" cy="275.0" r="4" fill="#b91c1c"/>
<circle cx="638.8" cy="84.3" r="4" fill="#0f766e"/>
<circle cx="649.0" cy="304.1" r="4" fill="#0f766e"/>
<circle cx="664.7" cy="114.7" r="4" fill="#0f766e"/>
<circle cx="664.7" cy="124.3" r="4" fill="#0f766e"/>
<circle cx="664.7" cy="182.6" r="4" fill="#0f766e"/>
<circle cx="664.7" cy="326.8" r="4" fill="#0f766e"/>
<circle cx="664.7" cy="131.6" r="4" fill="#0f766e"/>
<circle cx="664.7" cy="190.8" r="4" fill="#0f766e"/>
<circle cx="664.7" cy="268.0" r="4" fill="#0f766e"/>
<circle cx="664.7" cy="342.3" r="4" fill="#0f766e"/>
<circle cx="664.7" cy="255.0" r="4" fill="#0f766e"/>
<circle cx="664.7" cy="289.3" r="4" fill="#0f766e"/>
<circle cx="664.7" cy="324.2" r="4" fill="#0f766e"/>
<circle cx="664.7" cy="359.3" r="4" fill="#0f766e"/>
<circle cx="664.7" cy="61.5" r="4" fill="#0f766e"/>
<circle cx="664.7" cy="271.9" r="4" fill="#b91c1c"/>
<circle cx="664.7" cy="294.7" r="4" fill="#b91c1c"/>
<circle cx="664.7" cy="338.2" r="4" fill="#b91c1c"/>
<circle cx="704.5" cy="301.0" r="4" fill="#b91c1c"/>
<circle cx="713.7" cy="232.9" r="4" fill="#0f766e"/>
<circle cx="713.7" cy="228.1" r="4" fill="#0f766e"/>
<circle cx="713.7" cy="162.7" r="4" fill="#0f766e"/>
<circle cx="713.7" cy="123.5" r="4" fill="#0f766e"/>
<circle cx="713.7" cy="84.2" r="4" fill="#0f766e"/>
<circle cx="713.7" cy="313.0" r="4" fill="#b91c1c"/>
<circle cx="720.2" cy="71.6" r="4" fill="#0f766e"/>
<circle cx="721.1" cy="199.5" r="4" fill="#0f766e"/>
<circle cx="728.5" cy="266.8" r="4" fill="#0f766e"/>
<circle cx="728.5" cy="264.9" r="4" fill="#0f766e"/>
<circle cx="728.5" cy="195.6" r="4" fill="#0f766e"/>
<circle cx="728.5" cy="170.9" r="4" fill="#0f766e"/>
<circle cx="728.5" cy="126.3" r="4" fill="#0f766e"/>
<circle cx="728.5" cy="332.4" r="4" fill="#b91c1c"/>
<circle cx="746.1" cy="262.9" r="4" fill="#0f766e"/>
<circle cx="748.8" cy="287.1" r="4" fill="#b91c1c"/>
<circle cx="754.4" cy="322.0" r="4" fill="#0f766e"/>
<circle cx="754.4" cy="199.5" r="4" fill="#0f766e"/>
<circle cx="754.4" cy="103.2" r="4" fill="#0f766e"/>
<circle cx="754.4" cy="71.2" r="4" fill="#0f766e"/>
<circle cx="754.4" cy="264.6" r="4" fill="#b91c1c"/>
<circle cx="759.9" cy="79.4" r="4" fill="#0f766e"/>
<circle cx="759.9" cy="221.6" r="4" fill="#b91c1c"/>
<circle cx="760.9" cy="298.7" r="4" fill="#b91c1c"/>
<circle cx="765.5" cy="166.1" r="4" fill="#0f766e"/>
<circle cx="765.5" cy="98.4" r="4" fill="#0f766e"/>
<circle cx="765.5" cy="53.8" r="4" fill="#0f766e"/>
<circle cx="765.5" cy="34.3" r="4" fill="#0f766e"/>
<circle cx="765.5" cy="60.0" r="4" fill="#0f766e"/>
<circle cx="765.5" cy="270.0" r="4" fill="#b91c1c"/>
<circle cx="772.0" cy="131.2" r="4" fill="#0f766e"/>
<circle cx="772.0" cy="285.5" r="4" fill="#b91c1c"/>
<circle cx="774.7" cy="160.8" r="4" fill="#0f766e"/>
<circle cx="781.2" cy="306.1" r="4" fill="#0f766e"/>
<circle cx="781.2" cy="254.1" r="4" fill="#b91c1c"/>
<circle cx="781.2" cy="114.6" r="4" fill="#0f766e"/>
<circle cx="781.2" cy="57.6" r="4" fill="#0f766e"/>
<circle cx="781.2" cy="20.3" r="4" fill="#0f766e"/>
<circle cx="781.2" cy="1.9" r="4" fill="#0f766e"/>
<circle cx="781.2" cy="20.3" r="4" fill="#0f766e"/>
<circle cx="781.2" cy="3.3" r="4" fill="#0f766e"/>
<circle cx="781.2" cy="-8.2" r="4" fill="#0f766e"/>
<circle cx="786.8" cy="246.5" r="4" fill="#0f766e"/>
<circle cx="786.8" cy="222.1" r="4" fill="#0f766e"/>
<circle cx="786.8" cy="106.8" r="4" fill="#0f766e"/>
<circle cx="786.8" cy="27.7" r="4" fill="#0f766e"/>
<circle cx="786.8" cy="228.2" r="4" fill="#b91c1c"/>
<circle cx="824.7" cy="86.7" r="4" fill="#0f766e"/>
<circle cx="824.7" cy="271.6" r="4" fill="#b91c1c"/>
<circle cx="831.2" cy="3.8" r="4" fill="#0f766e"/>
<circle cx="833.0" cy="22.8" r="4" fill="#0f766e"/>
<circle cx="833.0" cy="2.8" r="4" fill="#0f766e"/>
<circle cx="833.0" cy="-3.0" r="4" fill="#0f766e"/>
<circle cx="833.0" cy="-4.9" r="4" fill="#0f766e"/>
<circle cx="833.0" cy="237.5" r="4" fill="#b91c1c"/>
<circle cx="839.5" cy="-2.0" r="4" fill="#0f766e"/>
<circle cx="839.5" cy="123.3" r="4" fill="#0f766e"/>
<circle cx="844.1" cy="-1.0" r="4" fill="#0f766e"/>
<circle cx="844.1" cy="0.9" r="4" fill="#0f766e"/>
<circle cx="844.1" cy="288.4" r="4" fill="#b91c1c"/>
<circle cx="846.0" cy="-9.8" r="4" fill="#0f766e"/>
<circle cx="846.0" cy="192.1" r="4" fill="#b91c1c"/>
<circle cx="846.9" cy="142.8" r="4" fill="#0f766e"/>
<circle cx="857.1" cy="302.6" r="4" fill="#b91c1c"/>
<circle cx="857.1" cy="213.9" r="4" fill="#b91c1c"/>
<circle cx="858.0" cy="60.0" r="4" fill="#0f766e"/>
<circle cx="858.0" cy="13.5" r="4" fill="#0f766e"/>
<circle cx="858.0" cy="-0.5" r="4" fill="#0f766e"/>
<circle cx="858.0" cy="-3.5" r="4" fill="#0f766e"/>
<circle cx="858.0" cy="-10.7" r="4" fill="#0f766e"/>
<circle cx="862.6" cy="253.0" r="4" fill="#b91c1c"/>
<circle cx="870.0" cy="78.9" r="4" fill="#0f766e"/>
<circle cx="870.0" cy="113.3" r="4" fill="#0f766e"/>
<circle cx="870.0" cy="155.4" r="4" fill="#0f766e"/>
<circle cx="870.0" cy="247.0" r="4" fill="#0f766e"/>
<circle cx="870.0" cy="170.4" r="4" fill="#0f766e"/>
<circle cx="870.0" cy="170.0" r="4" fill="#0f766e"/>
<circle cx="870.0" cy="201.9" r="4" fill="#0f766e"/>
<circle cx="870.0" cy="274.6" r="4" fill="#0f766e"/>
<circle cx="870.0" cy="278.9" r="4" fill="#b91c1c"/>
<circle cx="870.0" cy="297.9" r="4" fill="#b91c1c"/>
<text x="864.0" y="-16.7" font-family="ui-monospace, 'SF Mono', monospace" font-size="9" fill="#1d2a1d">GPT-5.4 Pro (xHigh</text>
<text x="852.0" y="-15.8" font-family="ui-monospace, 'SF Mono', monospace" font-size="9" fill="#1d2a1d">Gemini 3.1 Pro (Pr</text>
<text x="787.2" y="-14.2" font-family="ui-monospace, 'SF Mono', monospace" font-size="9" fill="#1d2a1d">GPT-5.2 Pro (X-Hig</text>
<text x="839.0" y="-10.9" font-family="ui-monospace, 'SF Mono', monospace" font-size="9" fill="#1d2a1d">Claude Opus 4.6 (1</text>
<text x="864.0" y="-9.5" font-family="ui-monospace, 'SF Mono', monospace" font-size="9" fill="#1d2a1d">GPT-5.4 (xHigh)</text>
</svg>