<svg xmlns="http://www.w3.org/2000/svg" width="900" height="420" viewBox="0 0 900 420"><rect width="900" height="420" fill="#fbfdfb" rx="8"/><text x="70" y="30" font-family="system-ui, -apple-system, sans-serif" font-size="20" font-weight="700" fill="#1d2a1d">Twin Rivers Timeline</text><text x="70" y="48" font-family="system-ui, -apple-system, sans-serif" font-size="12" fill="#5a6e58">173 models | ARC-AGI and HLE scores over time</text>
<circle cx="70" cy="46" r="4" fill="#0f766e"/>
<text x="78" y="49" font-family="system-ui, -apple-system, sans-serif" font-size="10" fill="#5a6e58">ARC-AGI</text>
<circle cx="139.5" cy="46" r="4" fill="#b91c1c"/>
<text x="147.5" y="49" font-family="system-ui, -apple-system, sans-serif" font-size="10" fill="#5a6e58">HLE</text>
<line x1="70" y1="370.0" x2="870" y2="370.0" stroke="#d3dfd4" stroke-width="0.5"/>
<text x="62" y="374.0" font-family="ui-monospace, 'SF Mono', monospace" font-size="10" fill="#5a6e58" text-anchor="end">0</text>
<line x1="70" y1="308.0" x2="870" y2="308.0" stroke="#d3dfd4" stroke-width="0.5"/>
<text x="62" y="312.0" font-family="ui-monospace, 'SF Mono', monospace" font-size="10" fill="#5a6e58" text-anchor="end">20</text>
<line x1="70" y1="246.0" x2="870" y2="246.0" stroke="#d3dfd4" stroke-width="0.5"/>
<text x="62" y="250.0" font-family="ui-monospace, 'SF Mono', monospace" font-size="10" fill="#5a6e58" text-anchor="end">40</text>
<line x1="70" y1="184.0" x2="870" y2="184.0" stroke="#d3dfd4" stroke-width="0.5"/>
<text x="62" y="188.0" font-family="ui-monospace, 'SF Mono', monospace" font-size="10" fill="#5a6e58" text-anchor="end">60</text>
<line x1="70" y1="122.0" x2="870" y2="122.0" stroke="#d3dfd4" stroke-width="0.5"/>
<text x="62" y="126.0" font-family="ui-monospace, 'SF Mono', monospace" font-size="10" fill="#5a6e58" text-anchor="end">80</text>
<line x1="70" y1="60.0" x2="870" y2="60.0" stroke="#d3dfd4" stroke-width="0.5"/>
<text x="62" y="64.0" font-family="ui-monospace, 'SF Mono', monospace" font-size="10" fill="#5a6e58" text-anchor="end">100</text>
<line x1="70.0" y1="370" x2="70.0" y2="375" stroke="#d3dfd4"/>
<text x="70.0" y="386" font-family="ui-monospace, 'SF Mono', monospace" font-size="9" fill="#5a6e58" text-anchor="middle">Nov 2023</text>
<line x1="364.6" y1="370" x2="364.6" y2="375" stroke="#d3dfd4"/>
<text x="364.6" y="386" font-family="ui-monospace, 'SF Mono', monospace" font-size="9" fill="#5a6e58" text-anchor="middle">Nov 2024</text>
<line x1="437.8" y1="370" x2="437.8" y2="375" stroke="#d3dfd4"/>
<text x="437.8" y="386" font-family="ui-monospace, 'SF Mono', monospace" font-size="9" fill="#5a6e58" text-anchor="middle">Feb 2025</text>
<line x1="519.1" y1="370" x2="519.1" y2="375" stroke="#d3dfd4"/>
<text x="519.1" y="386" font-family="ui-monospace, 'SF Mono', monospace" font-size="9" fill="#5a6e58" text-anchor="middle">May 2025</text>
<line x1="587.5" y1="370" x2="587.5" y2="375" stroke="#d3dfd4"/>
<text x="587.5" y="386" font-family="ui-monospace, 'SF Mono', monospace" font-size="9" fill="#5a6e58" text-anchor="middle">Aug 2025</text>
<line x1="660.7" y1="370" x2="660.7" y2="375" stroke="#d3dfd4"/>
<text x="660.7" y="386" font-family="ui-monospace, 'SF Mono', monospace" font-size="9" fill="#5a6e58" text-anchor="middle">Nov 2025</text>
<line x1="732.4" y1="370" x2="732.4" y2="375" stroke="#d3dfd4"/>
<text x="732.4" y="386" font-family="ui-monospace, 'SF Mono', monospace" font-size="9" fill="#5a6e58" text-anchor="middle">Feb 2026</text>
<line x1="817.7" y1="370" x2="817.7" y2="375" stroke="#d3dfd4"/>
<text x="817.7" y="386" font-family="ui-monospace, 'SF Mono', monospace" font-size="9" fill="#5a6e58" text-anchor="middle">May 2026</text>
<line x1="857.1" y1="370" x2="857.1" y2="375" stroke="#d3dfd4"/>
<text x="857.1" y="386" font-family="ui-monospace, 'SF Mono', monospace" font-size="9" fill="#5a6e58" text-anchor="middle">Jul 2026</text>
<line x1="70" y1="60" x2="70" y2="370" stroke="#d3dfd4"/>
<line x1="70" y1="370" x2="870" y2="370" stroke="#d3dfd4"/>
<text x="470.0" y="408" font-family="system-ui, -apple-system, sans-serif" font-size="11" fill="#5a6e58" text-anchor="middle">Release date</text>
<text x="14" y="215.0" font-family="system-ui, -apple-system, sans-serif" font-size="11" fill="#5a6e58" text-anchor="middle" transform="rotate(-90, 14, 215.0)">Score (%)</text>
<line x1="378.2" y1="356.1" x2="378.2" y2="361.6" stroke="#cad8cb" stroke-width="1"/>
<line x1="429.0" y1="321.0" x2="429.0" y2="343.6" stroke="#cad8cb" stroke-width="1"/>
<line x1="670.4" y1="137.5" x2="670.4" y2="251.3" stroke="#cad8cb" stroke-width="1"/>
<line x1="688.9" y1="318.9" x2="688.9" y2="277.3" stroke="#cad8cb" stroke-width="1"/>
<line x1="726.7" y1="143.3" x2="726.7" y2="291.3" stroke="#cad8cb" stroke-width="1"/>
<circle cx="70.0" cy="317.3" r="4" fill="#0f766e"/>
<circle cx="277.6" cy="370.0" r="4" fill="#0f766e"/>
<circle cx="322.7" cy="326.6" r="4" fill="#0f766e"/>
<circle cx="364.6" cy="196.4" r="4" fill="#0f766e"/>
<circle cx="364.6" cy="284.3" r="4" fill="#0f766e"/>
<circle cx="378.2" cy="356.1" r="4" fill="#0f766e"/>
<circle cx="378.2" cy="361.6" r="4" fill="#b91c1c"/>
<circle cx="390.3" cy="345.2" r="4" fill="#b91c1c"/>
<circle cx="429.0" cy="321.0" r="4" fill="#0f766e"/>
<circle cx="429.0" cy="343.6" r="4" fill="#b91c1c"/>
<circle cx="436.2" cy="275.0" r="4" fill="#0f766e"/>
<circle cx="436.2" cy="316.1" r="4" fill="#0f766e"/>
<circle cx="436.2" cy="225.6" r="4" fill="#0f766e"/>
<circle cx="436.2" cy="328.5" r="4" fill="#b91c1c"/>
<circle cx="437.8" cy="366.0" r="4" fill="#0f766e"/>
<circle cx="448.3" cy="367.5" r="4" fill="#0f766e"/>
<circle cx="451.5" cy="344.0" r="4" fill="#0f766e"/>
<circle cx="451.5" cy="315.4" r="4" fill="#0f766e"/>
<circle cx="455.5" cy="327.8" r="4" fill="#0f766e"/>
<circle cx="455.5" cy="281.3" r="4" fill="#0f766e"/>
<circle cx="455.5" cy="334.0" r="4" fill="#0f766e"/>
<circle cx="455.5" cy="304.3" r="4" fill="#0f766e"/>
<circle cx="455.5" cy="345.2" r="4" fill="#b91c1c"/>
<circle cx="457.9" cy="338.1" r="4" fill="#0f766e"/>
<circle cx="478.9" cy="311.7" r="4" fill="#b91c1c"/>
<circle cx="487.7" cy="347.9" r="4" fill="#0f766e"/>
<circle cx="487.7" cy="362.6" r="4" fill="#0f766e"/>
<circle cx="494.9" cy="364.6" r="4" fill="#0f766e"/>
<circle cx="494.9" cy="347.5" r="4" fill="#0f766e"/>
<circle cx="494.9" cy="333.6" r="4" fill="#0f766e"/>
<circle cx="496.6" cy="222.4" r="4" fill="#0f766e"/>
<circle cx="496.6" cy="194.2" r="4" fill="#0f766e"/>
<circle cx="496.6" cy="170.8" r="4" fill="#0f766e"/>
<circle cx="496.6" cy="284.4" r="4" fill="#0f766e"/>
<circle cx="496.6" cy="214.2" r="4" fill="#0f766e"/>
<circle cx="496.6" cy="159.1" r="4" fill="#0f766e"/>
<circle cx="496.6" cy="307.0" r="4" fill="#b91c1c"/>
<circle cx="496.6" cy="314.0" r="4" fill="#b91c1c"/>
<circle cx="519.1" cy="267.7" r="4" fill="#0f766e"/>
<circle cx="519.1" cy="273.0" r="4" fill="#0f766e"/>
<circle cx="519.1" cy="219.3" r="4" fill="#0f766e"/>
<circle cx="519.1" cy="194.1" r="4" fill="#0f766e"/>
<circle cx="519.1" cy="201.8" r="4" fill="#0f766e"/>
<circle cx="519.1" cy="228.6" r="4" fill="#0f766e"/>
<circle cx="519.1" cy="235.7" r="4" fill="#0f766e"/>
<circle cx="519.1" cy="259.9" r="4" fill="#0f766e"/>
<circle cx="523.9" cy="257.5" r="4" fill="#0f766e"/>
<circle cx="523.9" cy="314.3" r="4" fill="#0f766e"/>
<circle cx="523.9" cy="263.0" r="4" fill="#0f766e"/>
<circle cx="523.9" cy="258.4" r="4" fill="#0f766e"/>
<circle cx="523.9" cy="248.7" r="4" fill="#0f766e"/>
<circle cx="525.5" cy="340.2" r="4" fill="#b91c1c"/>
<circle cx="526.3" cy="266.5" r="4" fill="#0f766e"/>
<circle cx="530.4" cy="286.4" r="4" fill="#0f766e"/>
<circle cx="540.8" cy="212.3" r="4" fill="#0f766e"/>
<circle cx="540.8" cy="190.0" r="4" fill="#0f766e"/>
<circle cx="540.8" cy="173.6" r="4" fill="#0f766e"/>
<circle cx="540.8" cy="343.3" r="4" fill="#0f766e"/>
<circle cx="540.8" cy="342.4" r="4" fill="#0f766e"/>
<circle cx="540.8" cy="345.2" r="4" fill="#0f766e"/>
<circle cx="546.5" cy="315.8" r="4" fill="#0f766e"/>
<circle cx="546.5" cy="233.0" r="4" fill="#0f766e"/>
<circle cx="546.5" cy="195.1" r="4" fill="#0f766e"/>
<circle cx="546.5" cy="196.8" r="4" fill="#0f766e"/>
<circle cx="546.5" cy="302.9" r="4" fill="#b91c1c"/>
<circle cx="546.5" cy="332.6" r="4" fill="#b91c1c"/>
<circle cx="546.5" cy="349.2" r="4" fill="#b91c1c"/>
<circle cx="564.2" cy="141.4" r="4" fill="#0f766e"/>
<circle cx="564.2" cy="294.0" r="4" fill="#b91c1c"/>
<circle cx="577.0" cy="317.3" r="4" fill="#0f766e"/>
<circle cx="587.5" cy="165.8" r="4" fill="#0f766e"/>
<circle cx="587.5" cy="173.5" r="4" fill="#0f766e"/>
<circle cx="587.5" cy="220.1" r="4" fill="#0f766e"/>
<circle cx="587.5" cy="335.4" r="4" fill="#0f766e"/>
<circle cx="587.5" cy="179.3" r="4" fill="#0f766e"/>
<circle cx="587.5" cy="226.6" r="4" fill="#0f766e"/>
<circle cx="587.5" cy="288.4" r="4" fill="#0f766e"/>
<circle cx="587.5" cy="347.9" r="4" fill="#0f766e"/>
<circle cx="587.5" cy="278.0" r="4" fill="#0f766e"/>
<circle cx="587.5" cy="305.5" r="4" fill="#0f766e"/>
<circle cx="587.5" cy="333.4" r="4" fill="#0f766e"/>
<circle cx="587.5" cy="361.5" r="4" fill="#0f766e"/>
<circle cx="587.5" cy="123.2" r="4" fill="#0f766e"/>
<circle cx="587.5" cy="291.5" r="4" fill="#b91c1c"/>
<circle cx="587.5" cy="309.7" r="4" fill="#b91c1c"/>
<circle cx="587.5" cy="344.6" r="4" fill="#b91c1c"/>
<circle cx="622.1" cy="314.8" r="4" fill="#b91c1c"/>
<circle cx="630.2" cy="260.3" r="4" fill="#0f766e"/>
<circle cx="630.2" cy="256.5" r="4" fill="#0f766e"/>
<circle cx="630.2" cy="204.1" r="4" fill="#0f766e"/>
<circle cx="630.2" cy="172.8" r="4" fill="#0f766e"/>
<circle cx="630.2" cy="141.4" r="4" fill="#0f766e"/>
<circle cx="630.2" cy="324.4" r="4" fill="#b91c1c"/>
<circle cx="631.8" cy="287.5" r="4" fill="#0f766e"/>
<circle cx="631.8" cy="285.9" r="4" fill="#0f766e"/>
<circle cx="631.8" cy="230.5" r="4" fill="#0f766e"/>
<circle cx="631.8" cy="210.7" r="4" fill="#0f766e"/>
<circle cx="631.8" cy="175.1" r="4" fill="#0f766e"/>
<circle cx="635.8" cy="131.3" r="4" fill="#0f766e"/>
<circle cx="636.6" cy="233.6" r="4" fill="#0f766e"/>
<circle cx="643.0" cy="339.9" r="4" fill="#b91c1c"/>
<circle cx="647.9" cy="189.8" r="4" fill="#0f766e"/>
<circle cx="660.7" cy="303.7" r="4" fill="#b91c1c"/>
<circle cx="665.6" cy="285.7" r="4" fill="#b91c1c"/>
<circle cx="666.4" cy="331.6" r="4" fill="#0f766e"/>
<circle cx="666.4" cy="233.6" r="4" fill="#0f766e"/>
<circle cx="666.4" cy="156.5" r="4" fill="#0f766e"/>
<circle cx="666.4" cy="130.9" r="4" fill="#0f766e"/>
<circle cx="670.4" cy="137.5" r="4" fill="#0f766e"/>
<circle cx="670.4" cy="251.3" r="4" fill="#b91c1c"/>
<circle cx="671.2" cy="313.0" r="4" fill="#b91c1c"/>
<circle cx="675.2" cy="206.9" r="4" fill="#0f766e"/>
<circle cx="675.2" cy="152.7" r="4" fill="#0f766e"/>
<circle cx="675.2" cy="117.0" r="4" fill="#0f766e"/>
<circle cx="675.2" cy="101.5" r="4" fill="#0f766e"/>
<circle cx="675.2" cy="122.0" r="4" fill="#0f766e"/>
<circle cx="675.2" cy="290.0" r="4" fill="#b91c1c"/>
<circle cx="680.9" cy="179.0" r="4" fill="#0f766e"/>
<circle cx="680.9" cy="302.4" r="4" fill="#b91c1c"/>
<circle cx="683.3" cy="202.6" r="4" fill="#0f766e"/>
<circle cx="688.9" cy="318.9" r="4" fill="#0f766e"/>
<circle cx="688.9" cy="277.3" r="4" fill="#b91c1c"/>
<circle cx="688.9" cy="165.7" r="4" fill="#0f766e"/>
<circle cx="688.9" cy="120.1" r="4" fill="#0f766e"/>
<circle cx="688.9" cy="90.2" r="4" fill="#0f766e"/>
<circle cx="688.9" cy="75.5" r="4" fill="#0f766e"/>
<circle cx="688.9" cy="90.2" r="4" fill="#0f766e"/>
<circle cx="688.9" cy="76.7" r="4" fill="#0f766e"/>
<circle cx="688.9" cy="67.4" r="4" fill="#0f766e"/>
<circle cx="693.7" cy="271.2" r="4" fill="#0f766e"/>
<circle cx="693.7" cy="251.7" r="4" fill="#0f766e"/>
<circle cx="693.7" cy="159.5" r="4" fill="#0f766e"/>
<circle cx="693.7" cy="96.2" r="4" fill="#0f766e"/>
<circle cx="693.7" cy="256.5" r="4" fill="#b91c1c"/>
<circle cx="726.7" cy="143.3" r="4" fill="#0f766e"/>
<circle cx="726.7" cy="291.3" r="4" fill="#b91c1c"/>
<circle cx="732.4" cy="77.1" r="4" fill="#0f766e"/>
<circle cx="734.0" cy="92.2" r="4" fill="#0f766e"/>
<circle cx="734.0" cy="76.3" r="4" fill="#0f766e"/>
<circle cx="734.0" cy="71.6" r="4" fill="#0f766e"/>
<circle cx="734.0" cy="70.1" r="4" fill="#0f766e"/>
<circle cx="734.0" cy="264.0" r="4" fill="#b91c1c"/>
<circle cx="739.6" cy="98.8" r="4" fill="#0f766e"/>
<circle cx="739.6" cy="72.4" r="4" fill="#0f766e"/>
<circle cx="739.6" cy="172.6" r="4" fill="#0f766e"/>
<circle cx="743.6" cy="73.2" r="4" fill="#0f766e"/>
<circle cx="743.6" cy="74.7" r="4" fill="#0f766e"/>
<circle cx="743.6" cy="304.7" r="4" fill="#b91c1c"/>
<circle cx="745.3" cy="66.2" r="4" fill="#0f766e"/>
<circle cx="745.3" cy="227.7" r="4" fill="#b91c1c"/>
<circle cx="746.1" cy="188.2" r="4" fill="#0f766e"/>
<circle cx="754.9" cy="316.1" r="4" fill="#b91c1c"/>
<circle cx="754.9" cy="245.1" r="4" fill="#b91c1c"/>
<circle cx="755.7" cy="122.0" r="4" fill="#0f766e"/>
<circle cx="755.7" cy="84.8" r="4" fill="#0f766e"/>
<circle cx="755.7" cy="73.6" r="4" fill="#0f766e"/>
<circle cx="755.7" cy="71.2" r="4" fill="#0f766e"/>
<circle cx="755.7" cy="65.4" r="4" fill="#0f766e"/>
<circle cx="759.7" cy="276.4" r="4" fill="#b91c1c"/>
<circle cx="766.2" cy="297.1" r="4" fill="#b91c1c"/>
<circle cx="766.2" cy="312.3" r="4" fill="#b91c1c"/>
<circle cx="782.3" cy="290.5" r="4" fill="#b91c1c"/>
<circle cx="790.3" cy="249.0" r="4" fill="#b91c1c"/>
<circle cx="791.1" cy="267.3" r="4" fill="#b91c1c"/>
<circle cx="793.5" cy="260.0" r="4" fill="#b91c1c"/>
<circle cx="796.0" cy="234.2" r="4" fill="#b91c1c"/>
<circle cx="796.8" cy="269.6" r="4" fill="#b91c1c"/>
<circle cx="817.7" cy="238.2" r="4" fill="#b91c1c"/>
<circle cx="825.7" cy="239.2" r="4" fill="#b91c1c"/>
<circle cx="833.8" cy="206.6" r="4" fill="#b91c1c"/>
<circle cx="839.4" cy="241.7" r="4" fill="#b91c1c"/>
<circle cx="857.1" cy="248.2" r="4" fill="#b91c1c"/>
<circle cx="857.9" cy="228.9" r="4" fill="#b91c1c"/>
<circle cx="857.9" cy="258.8" r="4" fill="#b91c1c"/>
<circle cx="857.9" cy="271.4" r="4" fill="#b91c1c"/>
<circle cx="857.9" cy="216.7" r="4" fill="#b91c1c"/>
<circle cx="863.6" cy="242.7" r="4" fill="#b91c1c"/>
<circle cx="870.0" cy="211.9" r="4" fill="#b91c1c"/>
<text x="761.7" y="79.4" font-family="ui-monospace, 'SF Mono', monospace" font-size="9" fill="#1d2a1d" text-anchor="start">GPT-5.4 Pro (XHigh</text>
<text x="751.3" y="80.2" font-family="ui-monospace, 'SF Mono', monospace" font-size="9" fill="#1d2a1d" text-anchor="start">Gemini 3.1 Pro (Pr</text>
<text x="694.9" y="81.4" font-family="ui-monospace, 'SF Mono', monospace" font-size="9" fill="#1d2a1d" text-anchor="start">GPT-5.2 Pro (XHigh</text>
<text x="740.0" y="84.1" font-family="ui-monospace, 'SF Mono', monospace" font-size="9" fill="#1d2a1d" text-anchor="start">Claude Opus 4.6 (1</text>
</svg>