<svg xmlns="http://www.w3.org/2000/svg" width="900" height="420" viewBox="0 0 900 420"><rect width="900" height="420" fill="#fbfdfb" rx="8"/><text x="70" y="30" font-family="system-ui, -apple-system, sans-serif" font-size="20" font-weight="700" fill="#1d2a1d">Twin Rivers Timeline</text><text x="70" y="48" font-family="system-ui, -apple-system, sans-serif" font-size="12" fill="#5a6e58">163 models | ARC-AGI and HLE scores over time</text>
<circle cx="70" cy="46" r="4" fill="#0f766e"/>
<text x="78" y="49" font-family="system-ui, -apple-system, sans-serif" font-size="10" fill="#5a6e58">ARC-AGI</text>
<circle cx="139.5" cy="46" r="4" fill="#b91c1c"/>
<text x="147.5" y="49" font-family="system-ui, -apple-system, sans-serif" font-size="10" fill="#5a6e58">HLE</text>
<line x1="70" y1="370.0" x2="870" y2="370.0" stroke="#d3dfd4" stroke-width="0.5"/>
<text x="62" y="374.0" font-family="ui-monospace, 'SF Mono', monospace" font-size="10" fill="#5a6e58" text-anchor="end">0</text>
<line x1="70" y1="308.0" x2="870" y2="308.0" stroke="#d3dfd4" stroke-width="0.5"/>
<text x="62" y="312.0" font-family="ui-monospace, 'SF Mono', monospace" font-size="10" fill="#5a6e58" text-anchor="end">20</text>
<line x1="70" y1="246.0" x2="870" y2="246.0" stroke="#d3dfd4" stroke-width="0.5"/>
<text x="62" y="250.0" font-family="ui-monospace, 'SF Mono', monospace" font-size="10" fill="#5a6e58" text-anchor="end">40</text>
<line x1="70" y1="184.0" x2="870" y2="184.0" stroke="#d3dfd4" stroke-width="0.5"/>
<text x="62" y="188.0" font-family="ui-monospace, 'SF Mono', monospace" font-size="10" fill="#5a6e58" text-anchor="end">60</text>
<line x1="70" y1="122.0" x2="870" y2="122.0" stroke="#d3dfd4" stroke-width="0.5"/>
<text x="62" y="126.0" font-family="ui-monospace, 'SF Mono', monospace" font-size="10" fill="#5a6e58" text-anchor="end">80</text>
<line x1="70" y1="60.0" x2="870" y2="60.0" stroke="#d3dfd4" stroke-width="0.5"/>
<text x="62" y="64.0" font-family="ui-monospace, 'SF Mono', monospace" font-size="10" fill="#5a6e58" text-anchor="end">100</text>
<line x1="70.0" y1="370" x2="70.0" y2="375" stroke="#d3dfd4"/>
<text x="70.0" y="386" font-family="ui-monospace, 'SF Mono', monospace" font-size="9" fill="#5a6e58" text-anchor="middle">Nov 2023</text>
<line x1="385.2" y1="370" x2="385.2" y2="375" stroke="#d3dfd4"/>
<text x="385.2" y="386" font-family="ui-monospace, 'SF Mono', monospace" font-size="9" fill="#5a6e58" text-anchor="middle">Nov 2024</text>
<line x1="463.5" y1="370" x2="463.5" y2="375" stroke="#d3dfd4"/>
<text x="463.5" y="386" font-family="ui-monospace, 'SF Mono', monospace" font-size="9" fill="#5a6e58" text-anchor="middle">Feb 2025</text>
<line x1="550.5" y1="370" x2="550.5" y2="375" stroke="#d3dfd4"/>
<text x="550.5" y="386" font-family="ui-monospace, 'SF Mono', monospace" font-size="9" fill="#5a6e58" text-anchor="middle">May 2025</text>
<line x1="623.7" y1="370" x2="623.7" y2="375" stroke="#d3dfd4"/>
<text x="623.7" y="386" font-family="ui-monospace, 'SF Mono', monospace" font-size="9" fill="#5a6e58" text-anchor="middle">Aug 2025</text>
<line x1="702.1" y1="370" x2="702.1" y2="375" stroke="#d3dfd4"/>
<text x="702.1" y="386" font-family="ui-monospace, 'SF Mono', monospace" font-size="9" fill="#5a6e58" text-anchor="middle">Nov 2025</text>
<line x1="778.7" y1="370" x2="778.7" y2="375" stroke="#d3dfd4"/>
<text x="778.7" y="386" font-family="ui-monospace, 'SF Mono', monospace" font-size="9" fill="#5a6e58" text-anchor="middle">Feb 2026</text>
<line x1="870.0" y1="370" x2="870.0" y2="375" stroke="#d3dfd4"/>
<text x="870.0" y="386" font-family="ui-monospace, 'SF Mono', monospace" font-size="9" fill="#5a6e58" text-anchor="middle">May 2026</text>
<line x1="70" y1="60" x2="70" y2="370" stroke="#d3dfd4"/>
<line x1="70" y1="370" x2="870" y2="370" stroke="#d3dfd4"/>
<text x="470.0" y="408" font-family="system-ui, -apple-system, sans-serif" font-size="11" fill="#5a6e58" text-anchor="middle">Release date</text>
<text x="14" y="215.0" font-family="system-ui, -apple-system, sans-serif" font-size="11" fill="#5a6e58" text-anchor="middle" transform="rotate(-90, 14, 215.0)">Score (%)</text>
<line x1="399.8" y1="356.1" x2="399.8" y2="361.6" stroke="#cad8cb" stroke-width="1"/>
<line x1="454.1" y1="321.0" x2="454.1" y2="343.6" stroke="#cad8cb" stroke-width="1"/>
<line x1="712.4" y1="137.5" x2="712.4" y2="251.3" stroke="#cad8cb" stroke-width="1"/>
<line x1="732.2" y1="318.9" x2="732.2" y2="277.3" stroke="#cad8cb" stroke-width="1"/>
<line x1="772.7" y1="143.3" x2="772.7" y2="291.3" stroke="#cad8cb" stroke-width="1"/>
<circle cx="70.0" cy="317.3" r="4" fill="#0f766e"/>
<circle cx="292.2" cy="370.0" r="4" fill="#0f766e"/>
<circle cx="340.4" cy="326.6" r="4" fill="#0f766e"/>
<circle cx="385.2" cy="196.4" r="4" fill="#0f766e"/>
<circle cx="385.2" cy="284.3" r="4" fill="#0f766e"/>
<circle cx="399.8" cy="356.1" r="4" fill="#0f766e"/>
<circle cx="399.8" cy="361.6" r="4" fill="#b91c1c"/>
<circle cx="412.7" cy="345.2" r="4" fill="#b91c1c"/>
<circle cx="454.1" cy="321.0" r="4" fill="#0f766e"/>
<circle cx="454.1" cy="343.6" r="4" fill="#b91c1c"/>
<circle cx="461.8" cy="275.0" r="4" fill="#0f766e"/>
<circle cx="461.8" cy="316.1" r="4" fill="#0f766e"/>
<circle cx="461.8" cy="225.6" r="4" fill="#0f766e"/>
<circle cx="461.8" cy="328.5" r="4" fill="#b91c1c"/>
<circle cx="463.5" cy="366.0" r="4" fill="#0f766e"/>
<circle cx="474.7" cy="367.5" r="4" fill="#0f766e"/>
<circle cx="478.2" cy="344.0" r="4" fill="#0f766e"/>
<circle cx="478.2" cy="315.4" r="4" fill="#0f766e"/>
<circle cx="482.5" cy="327.8" r="4" fill="#0f766e"/>
<circle cx="482.5" cy="281.3" r="4" fill="#0f766e"/>
<circle cx="482.5" cy="334.0" r="4" fill="#0f766e"/>
<circle cx="482.5" cy="304.3" r="4" fill="#0f766e"/>
<circle cx="482.5" cy="345.2" r="4" fill="#b91c1c"/>
<circle cx="485.1" cy="338.1" r="4" fill="#0f766e"/>
<circle cx="507.5" cy="311.7" r="4" fill="#b91c1c"/>
<circle cx="516.9" cy="347.9" r="4" fill="#0f766e"/>
<circle cx="516.9" cy="362.6" r="4" fill="#0f766e"/>
<circle cx="524.7" cy="364.6" r="4" fill="#0f766e"/>
<circle cx="524.7" cy="347.5" r="4" fill="#0f766e"/>
<circle cx="524.7" cy="333.6" r="4" fill="#0f766e"/>
<circle cx="526.4" cy="222.4" r="4" fill="#0f766e"/>
<circle cx="526.4" cy="194.2" r="4" fill="#0f766e"/>
<circle cx="526.4" cy="170.8" r="4" fill="#0f766e"/>
<circle cx="526.4" cy="284.4" r="4" fill="#0f766e"/>
<circle cx="526.4" cy="214.2" r="4" fill="#0f766e"/>
<circle cx="526.4" cy="159.1" r="4" fill="#0f766e"/>
<circle cx="526.4" cy="307.0" r="4" fill="#b91c1c"/>
<circle cx="526.4" cy="314.0" r="4" fill="#b91c1c"/>
<circle cx="550.5" cy="267.7" r="4" fill="#0f766e"/>
<circle cx="550.5" cy="273.0" r="4" fill="#0f766e"/>
<circle cx="550.5" cy="219.3" r="4" fill="#0f766e"/>
<circle cx="550.5" cy="194.1" r="4" fill="#0f766e"/>
<circle cx="550.5" cy="201.8" r="4" fill="#0f766e"/>
<circle cx="550.5" cy="228.6" r="4" fill="#0f766e"/>
<circle cx="550.5" cy="235.7" r="4" fill="#0f766e"/>
<circle cx="550.5" cy="259.9" r="4" fill="#0f766e"/>
<circle cx="555.7" cy="257.5" r="4" fill="#0f766e"/>
<circle cx="555.7" cy="314.3" r="4" fill="#0f766e"/>
<circle cx="555.7" cy="263.0" r="4" fill="#0f766e"/>
<circle cx="555.7" cy="258.4" r="4" fill="#0f766e"/>
<circle cx="555.7" cy="248.7" r="4" fill="#0f766e"/>
<circle cx="557.4" cy="340.2" r="4" fill="#b91c1c"/>
<circle cx="558.3" cy="266.5" r="4" fill="#0f766e"/>
<circle cx="562.6" cy="286.4" r="4" fill="#0f766e"/>
<circle cx="573.8" cy="212.3" r="4" fill="#0f766e"/>
<circle cx="573.8" cy="190.0" r="4" fill="#0f766e"/>
<circle cx="573.8" cy="173.6" r="4" fill="#0f766e"/>
<circle cx="573.8" cy="343.3" r="4" fill="#0f766e"/>
<circle cx="573.8" cy="342.4" r="4" fill="#0f766e"/>
<circle cx="573.8" cy="345.2" r="4" fill="#0f766e"/>
<circle cx="579.8" cy="315.8" r="4" fill="#0f766e"/>
<circle cx="579.8" cy="233.0" r="4" fill="#0f766e"/>
<circle cx="579.8" cy="195.1" r="4" fill="#0f766e"/>
<circle cx="579.8" cy="196.8" r="4" fill="#0f766e"/>
<circle cx="579.8" cy="302.9" r="4" fill="#b91c1c"/>
<circle cx="579.8" cy="332.6" r="4" fill="#b91c1c"/>
<circle cx="579.8" cy="349.2" r="4" fill="#b91c1c"/>
<circle cx="598.7" cy="141.4" r="4" fill="#0f766e"/>
<circle cx="598.7" cy="294.0" r="4" fill="#b91c1c"/>
<circle cx="612.5" cy="317.3" r="4" fill="#0f766e"/>
<circle cx="623.7" cy="165.8" r="4" fill="#0f766e"/>
<circle cx="623.7" cy="173.5" r="4" fill="#0f766e"/>
<circle cx="623.7" cy="220.1" r="4" fill="#0f766e"/>
<circle cx="623.7" cy="335.4" r="4" fill="#0f766e"/>
<circle cx="623.7" cy="179.3" r="4" fill="#0f766e"/>
<circle cx="623.7" cy="226.6" r="4" fill="#0f766e"/>
<circle cx="623.7" cy="288.4" r="4" fill="#0f766e"/>
<circle cx="623.7" cy="347.9" r="4" fill="#0f766e"/>
<circle cx="623.7" cy="278.0" r="4" fill="#0f766e"/>
<circle cx="623.7" cy="305.5" r="4" fill="#0f766e"/>
<circle cx="623.7" cy="333.4" r="4" fill="#0f766e"/>
<circle cx="623.7" cy="361.5" r="4" fill="#0f766e"/>
<circle cx="623.7" cy="123.2" r="4" fill="#0f766e"/>
<circle cx="623.7" cy="291.5" r="4" fill="#b91c1c"/>
<circle cx="623.7" cy="309.7" r="4" fill="#b91c1c"/>
<circle cx="623.7" cy="344.6" r="4" fill="#b91c1c"/>
<circle cx="660.7" cy="314.8" r="4" fill="#b91c1c"/>
<circle cx="669.4" cy="260.3" r="4" fill="#0f766e"/>
<circle cx="669.4" cy="256.5" r="4" fill="#0f766e"/>
<circle cx="669.4" cy="204.1" r="4" fill="#0f766e"/>
<circle cx="669.4" cy="172.8" r="4" fill="#0f766e"/>
<circle cx="669.4" cy="141.4" r="4" fill="#0f766e"/>
<circle cx="669.4" cy="324.4" r="4" fill="#b91c1c"/>
<circle cx="671.1" cy="287.5" r="4" fill="#0f766e"/>
<circle cx="671.1" cy="285.9" r="4" fill="#0f766e"/>
<circle cx="671.1" cy="230.5" r="4" fill="#0f766e"/>
<circle cx="671.1" cy="210.7" r="4" fill="#0f766e"/>
<circle cx="671.1" cy="175.1" r="4" fill="#0f766e"/>
<circle cx="675.4" cy="131.3" r="4" fill="#0f766e"/>
<circle cx="676.2" cy="233.6" r="4" fill="#0f766e"/>
<circle cx="683.1" cy="339.9" r="4" fill="#b91c1c"/>
<circle cx="688.3" cy="189.8" r="4" fill="#0f766e"/>
<circle cx="702.1" cy="303.7" r="4" fill="#b91c1c"/>
<circle cx="707.2" cy="285.7" r="4" fill="#b91c1c"/>
<circle cx="708.1" cy="331.6" r="4" fill="#0f766e"/>
<circle cx="708.1" cy="233.6" r="4" fill="#0f766e"/>
<circle cx="708.1" cy="156.5" r="4" fill="#0f766e"/>
<circle cx="708.1" cy="130.9" r="4" fill="#0f766e"/>
<circle cx="712.4" cy="137.5" r="4" fill="#0f766e"/>
<circle cx="712.4" cy="251.3" r="4" fill="#b91c1c"/>
<circle cx="713.3" cy="313.0" r="4" fill="#b91c1c"/>
<circle cx="717.6" cy="206.9" r="4" fill="#0f766e"/>
<circle cx="717.6" cy="152.7" r="4" fill="#0f766e"/>
<circle cx="717.6" cy="117.0" r="4" fill="#0f766e"/>
<circle cx="717.6" cy="101.5" r="4" fill="#0f766e"/>
<circle cx="717.6" cy="122.0" r="4" fill="#0f766e"/>
<circle cx="717.6" cy="290.0" r="4" fill="#b91c1c"/>
<circle cx="723.6" cy="179.0" r="4" fill="#0f766e"/>
<circle cx="723.6" cy="302.4" r="4" fill="#b91c1c"/>
<circle cx="726.2" cy="202.6" r="4" fill="#0f766e"/>
<circle cx="732.2" cy="318.9" r="4" fill="#0f766e"/>
<circle cx="732.2" cy="277.3" r="4" fill="#b91c1c"/>
<circle cx="732.2" cy="165.7" r="4" fill="#0f766e"/>
<circle cx="732.2" cy="120.1" r="4" fill="#0f766e"/>
<circle cx="732.2" cy="90.2" r="4" fill="#0f766e"/>
<circle cx="732.2" cy="75.5" r="4" fill="#0f766e"/>
<circle cx="732.2" cy="90.2" r="4" fill="#0f766e"/>
<circle cx="732.2" cy="76.7" r="4" fill="#0f766e"/>
<circle cx="732.2" cy="67.4" r="4" fill="#0f766e"/>
<circle cx="737.4" cy="271.2" r="4" fill="#0f766e"/>
<circle cx="737.4" cy="251.7" r="4" fill="#0f766e"/>
<circle cx="737.4" cy="159.5" r="4" fill="#0f766e"/>
<circle cx="737.4" cy="96.2" r="4" fill="#0f766e"/>
<circle cx="737.4" cy="256.5" r="4" fill="#b91c1c"/>
<circle cx="772.7" cy="143.3" r="4" fill="#0f766e"/>
<circle cx="772.7" cy="291.3" r="4" fill="#b91c1c"/>
<circle cx="778.7" cy="77.1" r="4" fill="#0f766e"/>
<circle cx="780.4" cy="92.2" r="4" fill="#0f766e"/>
<circle cx="780.4" cy="76.3" r="4" fill="#0f766e"/>
<circle cx="780.4" cy="71.6" r="4" fill="#0f766e"/>
<circle cx="780.4" cy="70.1" r="4" fill="#0f766e"/>
<circle cx="780.4" cy="264.0" r="4" fill="#b91c1c"/>
<circle cx="786.5" cy="98.8" r="4" fill="#0f766e"/>
<circle cx="786.5" cy="72.4" r="4" fill="#0f766e"/>
<circle cx="786.5" cy="172.6" r="4" fill="#0f766e"/>
<circle cx="790.8" cy="73.2" r="4" fill="#0f766e"/>
<circle cx="790.8" cy="74.7" r="4" fill="#0f766e"/>
<circle cx="790.8" cy="304.7" r="4" fill="#b91c1c"/>
<circle cx="792.5" cy="66.2" r="4" fill="#0f766e"/>
<circle cx="792.5" cy="227.7" r="4" fill="#b91c1c"/>
<circle cx="793.4" cy="188.2" r="4" fill="#0f766e"/>
<circle cx="802.8" cy="316.1" r="4" fill="#b91c1c"/>
<circle cx="802.8" cy="245.1" r="4" fill="#b91c1c"/>
<circle cx="803.7" cy="122.0" r="4" fill="#0f766e"/>
<circle cx="803.7" cy="84.8" r="4" fill="#0f766e"/>
<circle cx="803.7" cy="73.6" r="4" fill="#0f766e"/>
<circle cx="803.7" cy="71.2" r="4" fill="#0f766e"/>
<circle cx="803.7" cy="65.4" r="4" fill="#0f766e"/>
<circle cx="808.0" cy="276.4" r="4" fill="#b91c1c"/>
<circle cx="814.9" cy="297.1" r="4" fill="#b91c1c"/>
<circle cx="814.9" cy="312.3" r="4" fill="#b91c1c"/>
<circle cx="832.1" cy="290.5" r="4" fill="#b91c1c"/>
<circle cx="840.7" cy="249.0" r="4" fill="#b91c1c"/>
<circle cx="841.6" cy="267.3" r="4" fill="#b91c1c"/>
<circle cx="844.2" cy="277.3" r="4" fill="#b91c1c"/>
<circle cx="846.7" cy="235.0" r="4" fill="#b91c1c"/>
<circle cx="847.6" cy="269.6" r="4" fill="#b91c1c"/>
<circle cx="870.0" cy="238.2" r="4" fill="#b91c1c"/>
<text x="809.7" y="79.4" font-family="ui-monospace, 'SF Mono', monospace" font-size="9" fill="#1d2a1d" text-anchor="start">GPT-5.4 Pro (xHigh</text>
<text x="798.5" y="80.2" font-family="ui-monospace, 'SF Mono', monospace" font-size="9" fill="#1d2a1d" text-anchor="start">Gemini 3.1 Pro (Pr</text>
<text x="738.2" y="81.4" font-family="ui-monospace, 'SF Mono', monospace" font-size="9" fill="#1d2a1d" text-anchor="start">GPT-5.2 Pro (xHigh</text>
<text x="786.4" y="84.1" font-family="ui-monospace, 'SF Mono', monospace" font-size="9" fill="#1d2a1d" text-anchor="start">Claude Opus 4.6 (1</text>
</svg>