<svg xmlns="http://www.w3.org/2000/svg" width="900" height="420" viewBox="0 0 900 420"><rect width="900" height="420" fill="#fbfdfb" rx="8"/><text x="70" y="30" font-family="system-ui, -apple-system, sans-serif" font-size="20" font-weight="700" fill="#1d2a1d">Twin Rivers Timeline</text><text x="70" y="48" font-family="system-ui, -apple-system, sans-serif" font-size="12" fill="#5a6e58">160 models | ARC-AGI and HLE scores over time</text>
<circle cx="70" cy="46" r="4" fill="#0f766e"/>
<text x="78" y="49" font-family="system-ui, -apple-system, sans-serif" font-size="10" fill="#5a6e58">ARC-AGI</text>
<circle cx="139.5" cy="46" r="4" fill="#b91c1c"/>
<text x="147.5" y="49" font-family="system-ui, -apple-system, sans-serif" font-size="10" fill="#5a6e58">HLE</text>
<line x1="70" y1="370.0" x2="870" y2="370.0" stroke="#d3dfd4" stroke-width="0.5"/>
<text x="62" y="374.0" font-family="ui-monospace, 'SF Mono', monospace" font-size="10" fill="#5a6e58" text-anchor="end">0</text>
<line x1="70" y1="308.0" x2="870" y2="308.0" stroke="#d3dfd4" stroke-width="0.5"/>
<text x="62" y="312.0" font-family="ui-monospace, 'SF Mono', monospace" font-size="10" fill="#5a6e58" text-anchor="end">20</text>
<line x1="70" y1="246.0" x2="870" y2="246.0" stroke="#d3dfd4" stroke-width="0.5"/>
<text x="62" y="250.0" font-family="ui-monospace, 'SF Mono', monospace" font-size="10" fill="#5a6e58" text-anchor="end">40</text>
<line x1="70" y1="184.0" x2="870" y2="184.0" stroke="#d3dfd4" stroke-width="0.5"/>
<text x="62" y="188.0" font-family="ui-monospace, 'SF Mono', monospace" font-size="10" fill="#5a6e58" text-anchor="end">60</text>
<line x1="70" y1="122.0" x2="870" y2="122.0" stroke="#d3dfd4" stroke-width="0.5"/>
<text x="62" y="126.0" font-family="ui-monospace, 'SF Mono', monospace" font-size="10" fill="#5a6e58" text-anchor="end">80</text>
<line x1="70" y1="60.0" x2="870" y2="60.0" stroke="#d3dfd4" stroke-width="0.5"/>
<text x="62" y="64.0" font-family="ui-monospace, 'SF Mono', monospace" font-size="10" fill="#5a6e58" text-anchor="end">100</text>
<line x1="70.0" y1="370" x2="70.0" y2="375" stroke="#d3dfd4"/>
<text x="70.0" y="386" font-family="ui-monospace, 'SF Mono', monospace" font-size="9" fill="#5a6e58" text-anchor="middle">Nov 2023</text>
<line x1="394.3" y1="370" x2="394.3" y2="375" stroke="#d3dfd4"/>
<text x="394.3" y="386" font-family="ui-monospace, 'SF Mono', monospace" font-size="9" fill="#5a6e58" text-anchor="middle">Nov 2024</text>
<line x1="474.9" y1="370" x2="474.9" y2="375" stroke="#d3dfd4"/>
<text x="474.9" y="386" font-family="ui-monospace, 'SF Mono', monospace" font-size="9" fill="#5a6e58" text-anchor="middle">Feb 2025</text>
<line x1="564.4" y1="370" x2="564.4" y2="375" stroke="#d3dfd4"/>
<text x="564.4" y="386" font-family="ui-monospace, 'SF Mono', monospace" font-size="9" fill="#5a6e58" text-anchor="middle">May 2025</text>
<line x1="639.7" y1="370" x2="639.7" y2="375" stroke="#d3dfd4"/>
<text x="639.7" y="386" font-family="ui-monospace, 'SF Mono', monospace" font-size="9" fill="#5a6e58" text-anchor="middle">Aug 2025</text>
<line x1="720.3" y1="370" x2="720.3" y2="375" stroke="#d3dfd4"/>
<text x="720.3" y="386" font-family="ui-monospace, 'SF Mono', monospace" font-size="9" fill="#5a6e58" text-anchor="middle">Nov 2025</text>
<line x1="799.1" y1="370" x2="799.1" y2="375" stroke="#d3dfd4"/>
<text x="799.1" y="386" font-family="ui-monospace, 'SF Mono', monospace" font-size="9" fill="#5a6e58" text-anchor="middle">Feb 2026</text>
<line x1="862.9" y1="370" x2="862.9" y2="375" stroke="#d3dfd4"/>
<text x="862.9" y="386" font-family="ui-monospace, 'SF Mono', monospace" font-size="9" fill="#5a6e58" text-anchor="middle">Apr 2026</text>
<line x1="70" y1="60" x2="70" y2="370" stroke="#d3dfd4"/>
<line x1="70" y1="370" x2="870" y2="370" stroke="#d3dfd4"/>
<text x="470.0" y="408" font-family="system-ui, -apple-system, sans-serif" font-size="11" fill="#5a6e58" text-anchor="middle">Release date</text>
<text x="14" y="215.0" font-family="system-ui, -apple-system, sans-serif" font-size="11" fill="#5a6e58" text-anchor="middle" transform="rotate(-90, 14, 215.0)">Score (%)</text>
<line x1="409.3" y1="356.1" x2="409.3" y2="361.6" stroke="#cad8cb" stroke-width="1"/>
<line x1="465.1" y1="321.0" x2="465.1" y2="343.6" stroke="#cad8cb" stroke-width="1"/>
<line x1="730.9" y1="137.5" x2="730.9" y2="251.3" stroke="#cad8cb" stroke-width="1"/>
<line x1="751.3" y1="318.9" x2="751.3" y2="277.3" stroke="#cad8cb" stroke-width="1"/>
<line x1="792.9" y1="143.3" x2="792.9" y2="291.3" stroke="#cad8cb" stroke-width="1"/>
<circle cx="70.0" cy="317.3" r="4" fill="#0f766e"/>
<circle cx="298.6" cy="370.0" r="4" fill="#0f766e"/>
<circle cx="348.2" cy="326.6" r="4" fill="#0f766e"/>
<circle cx="394.3" cy="196.4" r="4" fill="#0f766e"/>
<circle cx="394.3" cy="284.3" r="4" fill="#0f766e"/>
<circle cx="409.3" cy="356.1" r="4" fill="#0f766e"/>
<circle cx="409.3" cy="361.6" r="4" fill="#b91c1c"/>
<circle cx="422.6" cy="345.2" r="4" fill="#b91c1c"/>
<circle cx="465.1" cy="321.0" r="4" fill="#0f766e"/>
<circle cx="465.1" cy="343.6" r="4" fill="#b91c1c"/>
<circle cx="473.1" cy="275.0" r="4" fill="#0f766e"/>
<circle cx="473.1" cy="316.1" r="4" fill="#0f766e"/>
<circle cx="473.1" cy="225.6" r="4" fill="#0f766e"/>
<circle cx="473.1" cy="328.5" r="4" fill="#b91c1c"/>
<circle cx="474.9" cy="366.0" r="4" fill="#0f766e"/>
<circle cx="486.4" cy="367.5" r="4" fill="#0f766e"/>
<circle cx="489.9" cy="344.0" r="4" fill="#0f766e"/>
<circle cx="489.9" cy="315.4" r="4" fill="#0f766e"/>
<circle cx="494.4" cy="327.8" r="4" fill="#0f766e"/>
<circle cx="494.4" cy="281.3" r="4" fill="#0f766e"/>
<circle cx="494.4" cy="334.0" r="4" fill="#0f766e"/>
<circle cx="494.4" cy="304.3" r="4" fill="#0f766e"/>
<circle cx="494.4" cy="345.2" r="4" fill="#b91c1c"/>
<circle cx="497.0" cy="338.1" r="4" fill="#0f766e"/>
<circle cx="520.1" cy="311.7" r="4" fill="#b91c1c"/>
<circle cx="529.8" cy="347.9" r="4" fill="#0f766e"/>
<circle cx="529.8" cy="362.6" r="4" fill="#0f766e"/>
<circle cx="537.8" cy="364.6" r="4" fill="#0f766e"/>
<circle cx="537.8" cy="347.5" r="4" fill="#0f766e"/>
<circle cx="537.8" cy="333.6" r="4" fill="#0f766e"/>
<circle cx="539.5" cy="222.4" r="4" fill="#0f766e"/>
<circle cx="539.5" cy="194.2" r="4" fill="#0f766e"/>
<circle cx="539.5" cy="170.8" r="4" fill="#0f766e"/>
<circle cx="539.5" cy="284.4" r="4" fill="#0f766e"/>
<circle cx="539.5" cy="214.2" r="4" fill="#0f766e"/>
<circle cx="539.5" cy="159.1" r="4" fill="#0f766e"/>
<circle cx="539.5" cy="307.0" r="4" fill="#b91c1c"/>
<circle cx="539.5" cy="314.0" r="4" fill="#b91c1c"/>
<circle cx="564.4" cy="267.7" r="4" fill="#0f766e"/>
<circle cx="564.4" cy="273.0" r="4" fill="#0f766e"/>
<circle cx="564.4" cy="219.3" r="4" fill="#0f766e"/>
<circle cx="564.4" cy="194.1" r="4" fill="#0f766e"/>
<circle cx="564.4" cy="201.8" r="4" fill="#0f766e"/>
<circle cx="564.4" cy="228.6" r="4" fill="#0f766e"/>
<circle cx="564.4" cy="235.7" r="4" fill="#0f766e"/>
<circle cx="564.4" cy="259.9" r="4" fill="#0f766e"/>
<circle cx="569.7" cy="257.5" r="4" fill="#0f766e"/>
<circle cx="569.7" cy="314.3" r="4" fill="#0f766e"/>
<circle cx="569.7" cy="263.0" r="4" fill="#0f766e"/>
<circle cx="569.7" cy="258.4" r="4" fill="#0f766e"/>
<circle cx="569.7" cy="248.7" r="4" fill="#0f766e"/>
<circle cx="571.4" cy="340.2" r="4" fill="#b91c1c"/>
<circle cx="572.3" cy="266.5" r="4" fill="#0f766e"/>
<circle cx="576.8" cy="286.4" r="4" fill="#0f766e"/>
<circle cx="588.3" cy="212.3" r="4" fill="#0f766e"/>
<circle cx="588.3" cy="190.0" r="4" fill="#0f766e"/>
<circle cx="588.3" cy="173.6" r="4" fill="#0f766e"/>
<circle cx="588.3" cy="343.3" r="4" fill="#0f766e"/>
<circle cx="588.3" cy="342.4" r="4" fill="#0f766e"/>
<circle cx="588.3" cy="345.2" r="4" fill="#0f766e"/>
<circle cx="594.5" cy="315.8" r="4" fill="#0f766e"/>
<circle cx="594.5" cy="233.0" r="4" fill="#0f766e"/>
<circle cx="594.5" cy="195.1" r="4" fill="#0f766e"/>
<circle cx="594.5" cy="196.8" r="4" fill="#0f766e"/>
<circle cx="594.5" cy="302.9" r="4" fill="#b91c1c"/>
<circle cx="594.5" cy="332.6" r="4" fill="#b91c1c"/>
<circle cx="594.5" cy="349.2" r="4" fill="#b91c1c"/>
<circle cx="614.0" cy="141.4" r="4" fill="#0f766e"/>
<circle cx="614.0" cy="294.0" r="4" fill="#b91c1c"/>
<circle cx="628.1" cy="317.3" r="4" fill="#0f766e"/>
<circle cx="639.7" cy="165.8" r="4" fill="#0f766e"/>
<circle cx="639.7" cy="173.5" r="4" fill="#0f766e"/>
<circle cx="639.7" cy="220.1" r="4" fill="#0f766e"/>
<circle cx="639.7" cy="335.4" r="4" fill="#0f766e"/>
<circle cx="639.7" cy="179.3" r="4" fill="#0f766e"/>
<circle cx="639.7" cy="226.6" r="4" fill="#0f766e"/>
<circle cx="639.7" cy="288.4" r="4" fill="#0f766e"/>
<circle cx="639.7" cy="347.9" r="4" fill="#0f766e"/>
<circle cx="639.7" cy="278.0" r="4" fill="#0f766e"/>
<circle cx="639.7" cy="305.5" r="4" fill="#0f766e"/>
<circle cx="639.7" cy="333.4" r="4" fill="#0f766e"/>
<circle cx="639.7" cy="361.5" r="4" fill="#0f766e"/>
<circle cx="639.7" cy="123.2" r="4" fill="#0f766e"/>
<circle cx="639.7" cy="291.5" r="4" fill="#b91c1c"/>
<circle cx="639.7" cy="309.7" r="4" fill="#b91c1c"/>
<circle cx="639.7" cy="344.6" r="4" fill="#b91c1c"/>
<circle cx="677.8" cy="314.8" r="4" fill="#b91c1c"/>
<circle cx="686.6" cy="260.3" r="4" fill="#0f766e"/>
<circle cx="686.6" cy="256.5" r="4" fill="#0f766e"/>
<circle cx="686.6" cy="204.1" r="4" fill="#0f766e"/>
<circle cx="686.6" cy="172.8" r="4" fill="#0f766e"/>
<circle cx="686.6" cy="141.4" r="4" fill="#0f766e"/>
<circle cx="686.6" cy="324.4" r="4" fill="#b91c1c"/>
<circle cx="688.4" cy="287.5" r="4" fill="#0f766e"/>
<circle cx="688.4" cy="285.9" r="4" fill="#0f766e"/>
<circle cx="688.4" cy="230.5" r="4" fill="#0f766e"/>
<circle cx="688.4" cy="210.7" r="4" fill="#0f766e"/>
<circle cx="688.4" cy="175.1" r="4" fill="#0f766e"/>
<circle cx="692.8" cy="131.3" r="4" fill="#0f766e"/>
<circle cx="693.7" cy="233.6" r="4" fill="#0f766e"/>
<circle cx="700.8" cy="339.9" r="4" fill="#b91c1c"/>
<circle cx="706.1" cy="189.8" r="4" fill="#0f766e"/>
<circle cx="720.3" cy="303.7" r="4" fill="#b91c1c"/>
<circle cx="725.6" cy="285.7" r="4" fill="#b91c1c"/>
<circle cx="726.5" cy="331.6" r="4" fill="#0f766e"/>
<circle cx="726.5" cy="233.6" r="4" fill="#0f766e"/>
<circle cx="726.5" cy="156.5" r="4" fill="#0f766e"/>
<circle cx="726.5" cy="130.9" r="4" fill="#0f766e"/>
<circle cx="730.9" cy="137.5" r="4" fill="#0f766e"/>
<circle cx="730.9" cy="251.3" r="4" fill="#b91c1c"/>
<circle cx="731.8" cy="313.0" r="4" fill="#b91c1c"/>
<circle cx="736.2" cy="206.9" r="4" fill="#0f766e"/>
<circle cx="736.2" cy="152.7" r="4" fill="#0f766e"/>
<circle cx="736.2" cy="117.0" r="4" fill="#0f766e"/>
<circle cx="736.2" cy="101.5" r="4" fill="#0f766e"/>
<circle cx="736.2" cy="122.0" r="4" fill="#0f766e"/>
<circle cx="736.2" cy="290.0" r="4" fill="#b91c1c"/>
<circle cx="742.4" cy="179.0" r="4" fill="#0f766e"/>
<circle cx="742.4" cy="302.4" r="4" fill="#b91c1c"/>
<circle cx="745.1" cy="202.6" r="4" fill="#0f766e"/>
<circle cx="751.3" cy="318.9" r="4" fill="#0f766e"/>
<circle cx="751.3" cy="277.3" r="4" fill="#b91c1c"/>
<circle cx="751.3" cy="165.7" r="4" fill="#0f766e"/>
<circle cx="751.3" cy="120.1" r="4" fill="#0f766e"/>
<circle cx="751.3" cy="90.2" r="4" fill="#0f766e"/>
<circle cx="751.3" cy="75.5" r="4" fill="#0f766e"/>
<circle cx="751.3" cy="90.2" r="4" fill="#0f766e"/>
<circle cx="751.3" cy="76.7" r="4" fill="#0f766e"/>
<circle cx="751.3" cy="67.4" r="4" fill="#0f766e"/>
<circle cx="756.6" cy="271.2" r="4" fill="#0f766e"/>
<circle cx="756.6" cy="251.7" r="4" fill="#0f766e"/>
<circle cx="756.6" cy="159.5" r="4" fill="#0f766e"/>
<circle cx="756.6" cy="96.2" r="4" fill="#0f766e"/>
<circle cx="756.6" cy="256.5" r="4" fill="#b91c1c"/>
<circle cx="792.9" cy="143.3" r="4" fill="#0f766e"/>
<circle cx="792.9" cy="291.3" r="4" fill="#b91c1c"/>
<circle cx="799.1" cy="77.1" r="4" fill="#0f766e"/>
<circle cx="800.9" cy="92.2" r="4" fill="#0f766e"/>
<circle cx="800.9" cy="76.3" r="4" fill="#0f766e"/>
<circle cx="800.9" cy="71.6" r="4" fill="#0f766e"/>
<circle cx="800.9" cy="70.1" r="4" fill="#0f766e"/>
<circle cx="800.9" cy="264.0" r="4" fill="#b91c1c"/>
<circle cx="807.1" cy="98.8" r="4" fill="#0f766e"/>
<circle cx="807.1" cy="72.4" r="4" fill="#0f766e"/>
<circle cx="807.1" cy="172.6" r="4" fill="#0f766e"/>
<circle cx="811.5" cy="73.2" r="4" fill="#0f766e"/>
<circle cx="811.5" cy="74.7" r="4" fill="#0f766e"/>
<circle cx="811.5" cy="304.7" r="4" fill="#b91c1c"/>
<circle cx="813.3" cy="66.2" r="4" fill="#0f766e"/>
<circle cx="813.3" cy="227.7" r="4" fill="#b91c1c"/>
<circle cx="814.2" cy="188.2" r="4" fill="#0f766e"/>
<circle cx="823.9" cy="316.1" r="4" fill="#b91c1c"/>
<circle cx="823.9" cy="245.1" r="4" fill="#b91c1c"/>
<circle cx="824.8" cy="122.0" r="4" fill="#0f766e"/>
<circle cx="824.8" cy="84.8" r="4" fill="#0f766e"/>
<circle cx="824.8" cy="73.6" r="4" fill="#0f766e"/>
<circle cx="824.8" cy="71.2" r="4" fill="#0f766e"/>
<circle cx="824.8" cy="65.4" r="4" fill="#0f766e"/>
<circle cx="829.2" cy="276.4" r="4" fill="#b91c1c"/>
<circle cx="836.3" cy="297.1" r="4" fill="#b91c1c"/>
<circle cx="836.3" cy="312.3" r="4" fill="#b91c1c"/>
<circle cx="862.9" cy="249.0" r="4" fill="#b91c1c"/>
<circle cx="866.5" cy="277.3" r="4" fill="#b91c1c"/>
<circle cx="869.1" cy="235.0" r="4" fill="#b91c1c"/>
<circle cx="870.0" cy="269.6" r="4" fill="#b91c1c"/>
<text x="830.8" y="79.4" font-family="ui-monospace, 'SF Mono', monospace" font-size="9" fill="#1d2a1d" text-anchor="start">GPT-5.4 Pro (xHigh</text>
<text x="819.3" y="80.2" font-family="ui-monospace, 'SF Mono', monospace" font-size="9" fill="#1d2a1d" text-anchor="start">Gemini 3.1 Pro (Pr</text>
<text x="757.3" y="81.4" font-family="ui-monospace, 'SF Mono', monospace" font-size="9" fill="#1d2a1d" text-anchor="start">GPT-5.2 Pro (xHigh</text>
<text x="806.9" y="84.1" font-family="ui-monospace, 'SF Mono', monospace" font-size="9" fill="#1d2a1d" text-anchor="start">Claude Opus 4.6 (1</text>
</svg>