<svg xmlns="http://www.w3.org/2000/svg" width="900" height="420" viewBox="0 0 900 420"><rect width="900" height="420" fill="#fbfdfb" rx="8"/><text x="70" y="30" font-family="system-ui, -apple-system, sans-serif" font-size="20" font-weight="700" fill="#1d2a1d">Twin Rivers Timeline</text><text x="70" y="48" font-family="system-ui, -apple-system, sans-serif" font-size="12" fill="#5a6e58">152 models | ARC-AGI and HLE scores over time</text>
<circle cx="70" cy="46" r="4" fill="#0f766e"/>
<text x="78" y="49" font-family="system-ui, -apple-system, sans-serif" font-size="10" fill="#5a6e58">ARC-AGI</text>
<circle cx="139.5" cy="46" r="4" fill="#b91c1c"/>
<text x="147.5" y="49" font-family="system-ui, -apple-system, sans-serif" font-size="10" fill="#5a6e58">HLE</text>
<line x1="70" y1="370.0" x2="870" y2="370.0" stroke="#d3dfd4" stroke-width="0.5"/>
<text x="62" y="374.0" font-family="ui-monospace, 'SF Mono', monospace" font-size="10" fill="#5a6e58" text-anchor="end">0</text>
<line x1="70" y1="292.5" x2="870" y2="292.5" stroke="#d3dfd4" stroke-width="0.5"/>
<text x="62" y="296.5" font-family="ui-monospace, 'SF Mono', monospace" font-size="10" fill="#5a6e58" text-anchor="end">20</text>
<line x1="70" y1="215.0" x2="870" y2="215.0" stroke="#d3dfd4" stroke-width="0.5"/>
<text x="62" y="219.0" font-family="ui-monospace, 'SF Mono', monospace" font-size="10" fill="#5a6e58" text-anchor="end">40</text>
<line x1="70" y1="137.5" x2="870" y2="137.5" stroke="#d3dfd4" stroke-width="0.5"/>
<text x="62" y="141.5" font-family="ui-monospace, 'SF Mono', monospace" font-size="10" fill="#5a6e58" text-anchor="end">60</text>
<line x1="70" y1="60.0" x2="870" y2="60.0" stroke="#d3dfd4" stroke-width="0.5"/>
<text x="62" y="64.0" font-family="ui-monospace, 'SF Mono', monospace" font-size="10" fill="#5a6e58" text-anchor="end">80</text>
<text x="70.0" y="386" font-family="ui-monospace, 'SF Mono', monospace" font-size="9" fill="#5a6e58" text-anchor="middle">Nov 2023</text>
<text x="167.7" y="386" font-family="ui-monospace, 'SF Mono', monospace" font-size="9" fill="#5a6e58" text-anchor="middle">Feb 2024</text>
<text x="250.3" y="386" font-family="ui-monospace, 'SF Mono', monospace" font-size="9" fill="#5a6e58" text-anchor="middle">May 2024</text>
<text x="312.3" y="386" font-family="ui-monospace, 'SF Mono', monospace" font-size="9" fill="#5a6e58" text-anchor="middle">Jul 2024</text>
<text x="364.8" y="386" font-family="ui-monospace, 'SF Mono', monospace" font-size="9" fill="#5a6e58" text-anchor="middle">Sep 2024</text>
<text x="413.7" y="386" font-family="ui-monospace, 'SF Mono', monospace" font-size="9" fill="#5a6e58" text-anchor="middle">Nov 2024</text>
<text x="443.7" y="386" font-family="ui-monospace, 'SF Mono', monospace" font-size="9" fill="#5a6e58" text-anchor="middle">Dec 2024</text>
<text x="486.9" y="386" font-family="ui-monospace, 'SF Mono', monospace" font-size="9" fill="#5a6e58" text-anchor="middle">Jan 2025</text>
<text x="501.9" y="386" font-family="ui-monospace, 'SF Mono', monospace" font-size="9" fill="#5a6e58" text-anchor="middle">Feb 2025</text>
<text x="547.0" y="386" font-family="ui-monospace, 'SF Mono', monospace" font-size="9" fill="#5a6e58" text-anchor="middle">Mar 2025</text>
<text x="557.3" y="386" font-family="ui-monospace, 'SF Mono', monospace" font-size="9" fill="#5a6e58" text-anchor="middle">Apr 2025</text>
<text x="601.5" y="386" font-family="ui-monospace, 'SF Mono', monospace" font-size="9" fill="#5a6e58" text-anchor="middle">May 2025</text>
<text x="619.3" y="386" font-family="ui-monospace, 'SF Mono', monospace" font-size="9" fill="#5a6e58" text-anchor="middle">Jun 2025</text>
<text x="646.5" y="386" font-family="ui-monospace, 'SF Mono', monospace" font-size="9" fill="#5a6e58" text-anchor="middle">Jul 2025</text>
<text x="673.8" y="386" font-family="ui-monospace, 'SF Mono', monospace" font-size="9" fill="#5a6e58" text-anchor="middle">Aug 2025</text>
<text x="714.1" y="386" font-family="ui-monospace, 'SF Mono', monospace" font-size="9" fill="#5a6e58" text-anchor="middle">Sep 2025</text>
<text x="730.1" y="386" font-family="ui-monospace, 'SF Mono', monospace" font-size="9" fill="#5a6e58" text-anchor="middle">Oct 2025</text>
<text x="756.4" y="386" font-family="ui-monospace, 'SF Mono', monospace" font-size="9" fill="#5a6e58" text-anchor="middle">Nov 2025</text>
<text x="782.7" y="386" font-family="ui-monospace, 'SF Mono', monospace" font-size="9" fill="#5a6e58" text-anchor="middle">Dec 2025</text>
<text x="836.2" y="386" font-family="ui-monospace, 'SF Mono', monospace" font-size="9" fill="#5a6e58" text-anchor="middle">Jan 2026</text>
<text x="842.8" y="386" font-family="ui-monospace, 'SF Mono', monospace" font-size="9" fill="#5a6e58" text-anchor="middle">Feb 2026</text>
<text x="869.1" y="386" font-family="ui-monospace, 'SF Mono', monospace" font-size="9" fill="#5a6e58" text-anchor="middle">Mar 2026</text>
<line x1="70" y1="60" x2="70" y2="370" stroke="#d3dfd4"/>
<line x1="70" y1="370" x2="870" y2="370" stroke="#d3dfd4"/>
<text x="470.0" y="408" font-family="system-ui, -apple-system, sans-serif" font-size="11" fill="#5a6e58" text-anchor="middle">Release date</text>
<text x="14" y="215.0" font-family="system-ui, -apple-system, sans-serif" font-size="11" fill="#5a6e58" text-anchor="middle" transform="rotate(-90, 14, 215.0)">Score (%)</text>
<line x1="250.3" y1="352.6" x2="250.3" y2="359.5" stroke="#cad8cb" stroke-width="1"/>
<line x1="486.9" y1="308.8" x2="486.9" y2="337.1" stroke="#cad8cb" stroke-width="1"/>
<line x1="770.5" y1="79.4" x2="770.5" y2="221.6" stroke="#cad8cb" stroke-width="1"/>
<line x1="792.1" y1="306.1" x2="792.1" y2="254.1" stroke="#cad8cb" stroke-width="1"/>
<line x1="836.2" y1="86.7" x2="836.2" y2="271.6" stroke="#cad8cb" stroke-width="1"/>
<circle cx="70.0" cy="304.1" r="4" fill="#0f766e"/>
<circle cx="167.7" cy="366.9" r="4" fill="#0f766e"/>
<circle cx="250.3" cy="352.6" r="4" fill="#0f766e"/>
<circle cx="250.3" cy="359.5" r="4" fill="#b91c1c"/>
<circle cx="312.3" cy="370.0" r="4" fill="#0f766e"/>
<circle cx="364.8" cy="315.8" r="4" fill="#0f766e"/>
<circle cx="413.7" cy="153.0" r="4" fill="#0f766e"/>
<circle cx="443.7" cy="339.0" r="4" fill="#b91c1c"/>
<circle cx="486.9" cy="308.8" r="4" fill="#0f766e"/>
<circle cx="486.9" cy="337.1" r="4" fill="#b91c1c"/>
<circle cx="497.2" cy="251.3" r="4" fill="#0f766e"/>
<circle cx="497.2" cy="302.7" r="4" fill="#0f766e"/>
<circle cx="497.2" cy="189.5" r="4" fill="#0f766e"/>
<circle cx="497.2" cy="318.1" r="4" fill="#b91c1c"/>
<circle cx="501.9" cy="365.0" r="4" fill="#0f766e"/>
<circle cx="513.2" cy="337.5" r="4" fill="#0f766e"/>
<circle cx="513.2" cy="301.7" r="4" fill="#0f766e"/>
<circle cx="519.8" cy="317.3" r="4" fill="#0f766e"/>
<circle cx="519.8" cy="259.2" r="4" fill="#0f766e"/>
<circle cx="519.8" cy="325.1" r="4" fill="#0f766e"/>
<circle cx="519.8" cy="287.9" r="4" fill="#0f766e"/>
<circle cx="519.8" cy="339.0" r="4" fill="#b91c1c"/>
<circle cx="522.6" cy="330.1" r="4" fill="#0f766e"/>
<circle cx="547.0" cy="297.1" r="4" fill="#b91c1c"/>
<circle cx="557.3" cy="342.4" r="4" fill="#0f766e"/>
<circle cx="557.3" cy="360.8" r="4" fill="#0f766e"/>
<circle cx="565.8" cy="363.2" r="4" fill="#0f766e"/>
<circle cx="565.8" cy="341.9" r="4" fill="#0f766e"/>
<circle cx="565.8" cy="324.5" r="4" fill="#0f766e"/>
<circle cx="567.7" cy="185.5" r="4" fill="#0f766e"/>
<circle cx="567.7" cy="150.2" r="4" fill="#0f766e"/>
<circle cx="567.7" cy="121.0" r="4" fill="#0f766e"/>
<circle cx="567.7" cy="263.0" r="4" fill="#0f766e"/>
<circle cx="567.7" cy="175.3" r="4" fill="#0f766e"/>
<circle cx="567.7" cy="106.4" r="4" fill="#0f766e"/>
<circle cx="567.7" cy="240.7" r="4" fill="#0f766e"/>
<circle cx="567.7" cy="291.3" r="4" fill="#b91c1c"/>
<circle cx="567.7" cy="299.9" r="4" fill="#b91c1c"/>
<circle cx="568.6" cy="229.3" r="4" fill="#0f766e"/>
<circle cx="601.5" cy="242.1" r="4" fill="#0f766e"/>
<circle cx="601.5" cy="248.7" r="4" fill="#0f766e"/>
<circle cx="601.5" cy="181.6" r="4" fill="#0f766e"/>
<circle cx="601.5" cy="150.1" r="4" fill="#0f766e"/>
<circle cx="601.5" cy="159.8" r="4" fill="#0f766e"/>
<circle cx="601.5" cy="193.2" r="4" fill="#0f766e"/>
<circle cx="601.5" cy="202.2" r="4" fill="#0f766e"/>
<circle cx="601.5" cy="232.4" r="4" fill="#0f766e"/>
<circle cx="601.5" cy="332.8" r="4" fill="#b91c1c"/>
<circle cx="607.1" cy="265.5" r="4" fill="#0f766e"/>
<circle cx="619.3" cy="172.8" r="4" fill="#0f766e"/>
<circle cx="619.3" cy="145.0" r="4" fill="#0f766e"/>
<circle cx="619.3" cy="124.6" r="4" fill="#0f766e"/>
<circle cx="619.3" cy="336.6" r="4" fill="#0f766e"/>
<circle cx="619.3" cy="335.5" r="4" fill="#0f766e"/>
<circle cx="619.3" cy="339.0" r="4" fill="#0f766e"/>
<circle cx="625.9" cy="300.4" r="4" fill="#0f766e"/>
<circle cx="625.9" cy="236.2" r="4" fill="#0f766e"/>
<circle cx="625.9" cy="230.5" r="4" fill="#0f766e"/>
<circle cx="625.9" cy="218.4" r="4" fill="#0f766e"/>
<circle cx="625.9" cy="302.2" r="4" fill="#0f766e"/>
<circle cx="625.9" cy="198.8" r="4" fill="#0f766e"/>
<circle cx="625.9" cy="151.3" r="4" fill="#0f766e"/>
<circle cx="625.9" cy="153.5" r="4" fill="#0f766e"/>
<circle cx="625.9" cy="286.1" r="4" fill="#b91c1c"/>
<circle cx="625.9" cy="323.2" r="4" fill="#b91c1c"/>
<circle cx="625.9" cy="344.0" r="4" fill="#b91c1c"/>
<circle cx="646.5" cy="144.7" r="4" fill="#0f766e"/>
<circle cx="646.5" cy="275.0" r="4" fill="#b91c1c"/>
<circle cx="647.5" cy="84.3" r="4" fill="#0f766e"/>
<circle cx="657.8" cy="304.1" r="4" fill="#0f766e"/>
<circle cx="673.8" cy="114.7" r="4" fill="#0f766e"/>
<circle cx="673.8" cy="124.3" r="4" fill="#0f766e"/>
<circle cx="673.8" cy="182.6" r="4" fill="#0f766e"/>
<circle cx="673.8" cy="326.8" r="4" fill="#0f766e"/>
<circle cx="673.8" cy="131.6" r="4" fill="#0f766e"/>
<circle cx="673.8" cy="190.8" r="4" fill="#0f766e"/>
<circle cx="673.8" cy="268.0" r="4" fill="#0f766e"/>
<circle cx="673.8" cy="342.3" r="4" fill="#0f766e"/>
<circle cx="673.8" cy="255.0" r="4" fill="#0f766e"/>
<circle cx="673.8" cy="289.3" r="4" fill="#0f766e"/>
<circle cx="673.8" cy="324.2" r="4" fill="#0f766e"/>
<circle cx="673.8" cy="359.3" r="4" fill="#0f766e"/>
<circle cx="673.8" cy="61.5" r="4" fill="#0f766e"/>
<circle cx="673.8" cy="271.9" r="4" fill="#b91c1c"/>
<circle cx="673.8" cy="294.7" r="4" fill="#b91c1c"/>
<circle cx="673.8" cy="338.2" r="4" fill="#b91c1c"/>
<circle cx="714.1" cy="301.0" r="4" fill="#b91c1c"/>
<circle cx="723.5" cy="232.9" r="4" fill="#0f766e"/>
<circle cx="723.5" cy="228.1" r="4" fill="#0f766e"/>
<circle cx="723.5" cy="162.7" r="4" fill="#0f766e"/>
<circle cx="723.5" cy="123.5" r="4" fill="#0f766e"/>
<circle cx="723.5" cy="84.2" r="4" fill="#0f766e"/>
<circle cx="723.5" cy="313.0" r="4" fill="#b91c1c"/>
<circle cx="730.1" cy="71.6" r="4" fill="#0f766e"/>
<circle cx="731.0" cy="199.5" r="4" fill="#0f766e"/>
<circle cx="738.5" cy="266.8" r="4" fill="#0f766e"/>
<circle cx="738.5" cy="264.9" r="4" fill="#0f766e"/>
<circle cx="738.5" cy="195.6" r="4" fill="#0f766e"/>
<circle cx="738.5" cy="170.9" r="4" fill="#0f766e"/>
<circle cx="738.5" cy="126.3" r="4" fill="#0f766e"/>
<circle cx="738.5" cy="332.4" r="4" fill="#b91c1c"/>
<circle cx="756.4" cy="262.9" r="4" fill="#0f766e"/>
<circle cx="759.2" cy="287.1" r="4" fill="#b91c1c"/>
<circle cx="764.8" cy="322.0" r="4" fill="#0f766e"/>
<circle cx="764.8" cy="199.5" r="4" fill="#0f766e"/>
<circle cx="764.8" cy="103.2" r="4" fill="#0f766e"/>
<circle cx="764.8" cy="71.2" r="4" fill="#0f766e"/>
<circle cx="764.8" cy="264.6" r="4" fill="#b91c1c"/>
<circle cx="770.5" cy="79.4" r="4" fill="#0f766e"/>
<circle cx="770.5" cy="221.6" r="4" fill="#b91c1c"/>
<circle cx="771.4" cy="298.7" r="4" fill="#b91c1c"/>
<circle cx="776.1" cy="166.1" r="4" fill="#0f766e"/>
<circle cx="776.1" cy="98.4" r="4" fill="#0f766e"/>
<circle cx="776.1" cy="53.8" r="4" fill="#0f766e"/>
<circle cx="776.1" cy="34.3" r="4" fill="#0f766e"/>
<circle cx="776.1" cy="60.0" r="4" fill="#0f766e"/>
<circle cx="776.1" cy="270.0" r="4" fill="#b91c1c"/>
<circle cx="782.7" cy="131.2" r="4" fill="#0f766e"/>
<circle cx="782.7" cy="285.5" r="4" fill="#b91c1c"/>
<circle cx="785.5" cy="160.8" r="4" fill="#0f766e"/>
<circle cx="792.1" cy="306.1" r="4" fill="#0f766e"/>
<circle cx="792.1" cy="254.1" r="4" fill="#b91c1c"/>
<circle cx="792.1" cy="114.6" r="4" fill="#0f766e"/>
<circle cx="792.1" cy="57.6" r="4" fill="#0f766e"/>
<circle cx="792.1" cy="20.3" r="4" fill="#0f766e"/>
<circle cx="792.1" cy="1.9" r="4" fill="#0f766e"/>
<circle cx="792.1" cy="20.3" r="4" fill="#0f766e"/>
<circle cx="792.1" cy="3.3" r="4" fill="#0f766e"/>
<circle cx="792.1" cy="-8.2" r="4" fill="#0f766e"/>
<circle cx="797.7" cy="246.5" r="4" fill="#0f766e"/>
<circle cx="797.7" cy="222.1" r="4" fill="#0f766e"/>
<circle cx="797.7" cy="106.8" r="4" fill="#0f766e"/>
<circle cx="797.7" cy="27.7" r="4" fill="#0f766e"/>
<circle cx="797.7" cy="228.2" r="4" fill="#b91c1c"/>
<circle cx="836.2" cy="86.7" r="4" fill="#0f766e"/>
<circle cx="836.2" cy="271.6" r="4" fill="#b91c1c"/>
<circle cx="842.8" cy="3.8" r="4" fill="#0f766e"/>
<circle cx="844.6" cy="22.8" r="4" fill="#0f766e"/>
<circle cx="844.6" cy="2.8" r="4" fill="#0f766e"/>
<circle cx="844.6" cy="-3.0" r="4" fill="#0f766e"/>
<circle cx="844.6" cy="-4.9" r="4" fill="#0f766e"/>
<circle cx="844.6" cy="237.5" r="4" fill="#b91c1c"/>
<circle cx="851.2" cy="-2.0" r="4" fill="#0f766e"/>
<circle cx="851.2" cy="123.3" r="4" fill="#0f766e"/>
<circle cx="855.9" cy="-1.0" r="4" fill="#0f766e"/>
<circle cx="855.9" cy="0.9" r="4" fill="#0f766e"/>
<circle cx="855.9" cy="288.4" r="4" fill="#b91c1c"/>
<circle cx="857.8" cy="-9.8" r="4" fill="#0f766e"/>
<circle cx="857.8" cy="192.1" r="4" fill="#b91c1c"/>
<circle cx="858.7" cy="142.8" r="4" fill="#0f766e"/>
<circle cx="869.1" cy="302.6" r="4" fill="#b91c1c"/>
<circle cx="869.1" cy="213.9" r="4" fill="#b91c1c"/>
<circle cx="870.0" cy="60.0" r="4" fill="#0f766e"/>
<circle cx="870.0" cy="13.5" r="4" fill="#0f766e"/>
<circle cx="870.0" cy="-0.5" r="4" fill="#0f766e"/>
<circle cx="870.0" cy="-3.5" r="4" fill="#0f766e"/>
<circle cx="870.0" cy="-10.7" r="4" fill="#0f766e"/>
<text x="876.0" y="-16.7" font-family="ui-monospace, 'SF Mono', monospace" font-size="9" fill="#1d2a1d">GPT-5.4 Pro (xHigh</text>
<text x="863.8" y="-15.8" font-family="ui-monospace, 'SF Mono', monospace" font-size="9" fill="#1d2a1d">Gemini 3.1 Pro (Pr</text>
<text x="798.1" y="-14.2" font-family="ui-monospace, 'SF Mono', monospace" font-size="9" fill="#1d2a1d">GPT-5.2 Pro (X-Hig</text>
<text x="850.6" y="-10.9" font-family="ui-monospace, 'SF Mono', monospace" font-size="9" fill="#1d2a1d">Claude Opus 4.6 (1</text>
<text x="876.0" y="-9.5" font-family="ui-monospace, 'SF Mono', monospace" font-size="9" fill="#1d2a1d">GPT-5.4 (xHigh)</text>
</svg>