<svg xmlns="http://www.w3.org/2000/svg" width="900" height="420" viewBox="0 0 900 420"><rect width="900" height="420" fill="#fbfdfb" rx="8"/><text x="70" y="30" font-family="system-ui, -apple-system, sans-serif" font-size="20" font-weight="700" fill="#1d2a1d">Twin Rivers Timeline</text><text x="70" y="48" font-family="system-ui, -apple-system, sans-serif" font-size="12" fill="#5a6e58">33 models | ARC-AGI and HLE scores over time</text>
<circle cx="70" cy="46" r="4" fill="#0f766e"/>
<text x="78" y="49" font-family="system-ui, -apple-system, sans-serif" font-size="10" fill="#5a6e58">ARC-AGI</text>
<circle cx="139.5" cy="46" r="4" fill="#b91c1c"/>
<text x="147.5" y="49" font-family="system-ui, -apple-system, sans-serif" font-size="10" fill="#5a6e58">HLE</text>
<line x1="70" y1="370.0" x2="870" y2="370.0" stroke="#d3dfd4" stroke-width="0.5"/>
<text x="62" y="374.0" font-family="ui-monospace, 'SF Mono', monospace" font-size="10" fill="#5a6e58" text-anchor="end">0</text>
<line x1="70" y1="325.7" x2="870" y2="325.7" stroke="#d3dfd4" stroke-width="0.5"/>
<text x="62" y="329.7" font-family="ui-monospace, 'SF Mono', monospace" font-size="10" fill="#5a6e58" text-anchor="end">10</text>
<line x1="70" y1="281.4" x2="870" y2="281.4" stroke="#d3dfd4" stroke-width="0.5"/>
<text x="62" y="285.4" font-family="ui-monospace, 'SF Mono', monospace" font-size="10" fill="#5a6e58" text-anchor="end">20</text>
<line x1="70" y1="237.1" x2="870" y2="237.1" stroke="#d3dfd4" stroke-width="0.5"/>
<text x="62" y="241.1" font-family="ui-monospace, 'SF Mono', monospace" font-size="10" fill="#5a6e58" text-anchor="end">30</text>
<line x1="70" y1="192.9" x2="870" y2="192.9" stroke="#d3dfd4" stroke-width="0.5"/>
<text x="62" y="196.9" font-family="ui-monospace, 'SF Mono', monospace" font-size="10" fill="#5a6e58" text-anchor="end">40</text>
<line x1="70" y1="148.6" x2="870" y2="148.6" stroke="#d3dfd4" stroke-width="0.5"/>
<text x="62" y="152.6" font-family="ui-monospace, 'SF Mono', monospace" font-size="10" fill="#5a6e58" text-anchor="end">50</text>
<line x1="70" y1="104.3" x2="870" y2="104.3" stroke="#d3dfd4" stroke-width="0.5"/>
<text x="62" y="108.3" font-family="ui-monospace, 'SF Mono', monospace" font-size="10" fill="#5a6e58" text-anchor="end">60</text>
<line x1="70" y1="60.0" x2="870" y2="60.0" stroke="#d3dfd4" stroke-width="0.5"/>
<text x="62" y="64.0" font-family="ui-monospace, 'SF Mono', monospace" font-size="10" fill="#5a6e58" text-anchor="end">70</text>
<text x="70.0" y="386" font-family="ui-monospace, 'SF Mono', monospace" font-size="9" fill="#5a6e58" text-anchor="middle">Nov 2024</text>
<text x="95.6" y="386" font-family="ui-monospace, 'SF Mono', monospace" font-size="9" fill="#5a6e58" text-anchor="middle">Dec 2024</text>
<text x="174.3" y="386" font-family="ui-monospace, 'SF Mono', monospace" font-size="9" fill="#5a6e58" text-anchor="middle">Jan 2025</text>
<text x="234.1" y="386" font-family="ui-monospace, 'SF Mono', monospace" font-size="9" fill="#5a6e58" text-anchor="middle">Feb 2025</text>
<text x="283.7" y="386" font-family="ui-monospace, 'SF Mono', monospace" font-size="9" fill="#5a6e58" text-anchor="middle">Mar 2025</text>
<text x="321.3" y="386" font-family="ui-monospace, 'SF Mono', monospace" font-size="9" fill="#5a6e58" text-anchor="middle">Apr 2025</text>
<text x="382.8" y="386" font-family="ui-monospace, 'SF Mono', monospace" font-size="9" fill="#5a6e58" text-anchor="middle">May 2025</text>
<text x="427.3" y="386" font-family="ui-monospace, 'SF Mono', monospace" font-size="9" fill="#5a6e58" text-anchor="middle">Jun 2025</text>
<text x="464.9" y="386" font-family="ui-monospace, 'SF Mono', monospace" font-size="9" fill="#5a6e58" text-anchor="middle">Jul 2025</text>
<text x="514.4" y="386" font-family="ui-monospace, 'SF Mono', monospace" font-size="9" fill="#5a6e58" text-anchor="middle">Aug 2025</text>
<text x="587.9" y="386" font-family="ui-monospace, 'SF Mono', monospace" font-size="9" fill="#5a6e58" text-anchor="middle">Sep 2025</text>
<text x="632.4" y="386" font-family="ui-monospace, 'SF Mono', monospace" font-size="9" fill="#5a6e58" text-anchor="middle">Oct 2025</text>
<text x="670.0" y="386" font-family="ui-monospace, 'SF Mono', monospace" font-size="9" fill="#5a6e58" text-anchor="middle">Nov 2025</text>
<text x="712.7" y="386" font-family="ui-monospace, 'SF Mono', monospace" font-size="9" fill="#5a6e58" text-anchor="middle">Dec 2025</text>
<text x="813.6" y="386" font-family="ui-monospace, 'SF Mono', monospace" font-size="9" fill="#5a6e58" text-anchor="middle">Jan 2026</text>
<text x="825.6" y="386" font-family="ui-monospace, 'SF Mono', monospace" font-size="9" fill="#5a6e58" text-anchor="middle">Feb 2026</text>
<text x="870.0" y="386" font-family="ui-monospace, 'SF Mono', monospace" font-size="9" fill="#5a6e58" text-anchor="middle">Mar 2026</text>
<line x1="70" y1="60" x2="70" y2="370" stroke="#d3dfd4"/>
<line x1="70" y1="370" x2="870" y2="370" stroke="#d3dfd4"/>
<text x="470.0" y="408" font-family="system-ui, -apple-system, sans-serif" font-size="11" fill="#5a6e58" text-anchor="middle">Release date</text>
<text x="14" y="215.0" font-family="system-ui, -apple-system, sans-serif" font-size="11" fill="#5a6e58" text-anchor="middle" transform="rotate(-90, 14, 215.0)">Score (%)</text>
<line x1="70.0" y1="350.1" x2="70.0" y2="358.0" stroke="#cad8cb" stroke-width="1"/>
<line x1="813.6" y1="46.2" x2="813.6" y2="257.5" stroke="#cad8cb" stroke-width="1"/>
<circle cx="70.0" cy="350.1" r="4" fill="#0f766e"/>
<circle cx="70.0" cy="358.0" r="4" fill="#b91c1c"/>
<circle cx="95.6" cy="334.6" r="4" fill="#b91c1c"/>
<circle cx="174.3" cy="332.4" r="4" fill="#b91c1c"/>
<circle cx="193.1" cy="310.7" r="4" fill="#b91c1c"/>
<circle cx="234.1" cy="334.6" r="4" fill="#b91c1c"/>
<circle cx="283.7" cy="286.7" r="4" fill="#b91c1c"/>
<circle cx="321.3" cy="280.0" r="4" fill="#b91c1c"/>
<circle cx="321.3" cy="289.9" r="4" fill="#b91c1c"/>
<circle cx="382.8" cy="327.5" r="4" fill="#b91c1c"/>
<circle cx="427.3" cy="274.2" r="4" fill="#b91c1c"/>
<circle cx="427.3" cy="316.5" r="4" fill="#b91c1c"/>
<circle cx="427.3" cy="340.3" r="4" fill="#b91c1c"/>
<circle cx="464.9" cy="261.4" r="4" fill="#b91c1c"/>
<circle cx="514.4" cy="257.9" r="4" fill="#b91c1c"/>
<circle cx="514.4" cy="283.9" r="4" fill="#b91c1c"/>
<circle cx="514.4" cy="333.7" r="4" fill="#b91c1c"/>
<circle cx="587.9" cy="291.2" r="4" fill="#b91c1c"/>
<circle cx="605.0" cy="304.9" r="4" fill="#b91c1c"/>
<circle cx="605.0" cy="301.8" r="4" fill="#b91c1c"/>
<circle cx="632.4" cy="327.0" r="4" fill="#b91c1c"/>
<circle cx="670.0" cy="275.2" r="4" fill="#b91c1c"/>
<circle cx="680.3" cy="200.4" r="4" fill="#b91c1c"/>
<circle cx="680.3" cy="249.5" r="4" fill="#b91c1c"/>
<circle cx="692.2" cy="288.5" r="4" fill="#b91c1c"/>
<circle cx="700.8" cy="255.7" r="4" fill="#b91c1c"/>
<circle cx="712.7" cy="273.5" r="4" fill="#b91c1c"/>
<circle cx="729.8" cy="237.6" r="4" fill="#b91c1c"/>
<circle cx="740.1" cy="207.9" r="4" fill="#b91c1c"/>
<circle cx="813.6" cy="46.2" r="4" fill="#0f766e"/>
<circle cx="813.6" cy="257.5" r="4" fill="#b91c1c"/>
<circle cx="825.6" cy="218.5" r="4" fill="#b91c1c"/>
<circle cx="846.1" cy="276.7" r="4" fill="#b91c1c"/>
<circle cx="849.5" cy="166.7" r="4" fill="#b91c1c"/>
<circle cx="870.0" cy="292.9" r="4" fill="#b91c1c"/>
<text x="819.6" y="40.2" font-family="ui-monospace, 'SF Mono', monospace" font-size="9" fill="#1d2a1d">kimi-k2.5</text>
<text x="76.0" y="344.1" font-family="ui-monospace, 'SF Mono', monospace" font-size="9" fill="#1d2a1d">GPT-4o</text>
<text x="101.6" y="364.0" font-family="ui-monospace, 'SF Mono', monospace" font-size="9" fill="#1d2a1d">o1</text>
<text x="180.3" y="364.0" font-family="ui-monospace, 'SF Mono', monospace" font-size="9" fill="#1d2a1d">DeepSeek R1</text>
<text x="199.1" y="364.0" font-family="ui-monospace, 'SF Mono', monospace" font-size="9" fill="#1d2a1d">o3-mini</text>
</svg>